<svg width="32" height="32" viewBox="0 0 32 32" fill="none" xmlns="http://www.w3.org/2000/svg">
<path d="M29.3337 21.587C29.3337 26.4403 26.4403 29.3337 21.587 29.3337H20.0003C19.267 29.3337 18.667 28.7337 18.667 28.0003V20.307C18.667 19.947 18.9603 19.6403 19.3203 19.6403L21.667 19.6003C21.8537 19.587 22.0137 19.4537 22.0537 19.267L22.5203 16.7203C22.5603 16.4803 22.3737 16.2537 22.1203 16.2537L19.2803 16.2937C18.907 16.2937 18.6137 16.0003 18.6003 15.6403L18.547 12.3737C18.547 12.1603 18.7203 11.9737 18.947 11.9737L22.147 11.9203C22.3736 11.9203 22.547 11.747 22.547 11.5203L22.4937 8.32031C22.4937 8.09365 22.3203 7.92033 22.0937 7.92033L18.4937 7.97367C16.2803 8.01367 14.5203 9.82699 14.5603 12.0403L14.627 15.707C14.6403 16.0803 14.347 16.3737 13.9737 16.387L12.3737 16.4137C12.147 16.4137 11.9737 16.587 11.9737 16.8136L12.0137 19.347C12.0137 19.5737 12.187 19.747 12.4137 19.747L14.0137 19.7203C14.387 19.7203 14.6803 20.0137 14.6936 20.3737L14.8136 27.9737C14.827 28.7203 14.227 29.3337 13.4803 29.3337H10.4137C5.56032 29.3337 2.66699 26.4403 2.66699 21.5737V10.4137C2.66699 5.56032 5.56032 2.66699 10.4137 2.66699H21.587C26.4403 2.66699 29.3337 5.56032 29.3337 10.4137V21.587Z" fill="#0F1A27"/>
</svg>
