<svg width="32" height="32" viewBox="0 0 32 32" fill="none" xmlns="http://www.w3.org/2000/svg">
<path d="M21.587 2.66699H10.4137C5.56033 2.66699 2.66699 5.56033 2.66699 10.4137V21.5737C2.66699 26.4403 5.56033 29.3337 10.4137 29.3337H21.5737C26.427 29.3337 29.3203 26.4403 29.3203 21.587V10.4137C29.3337 5.56033 26.4403 2.66699 21.587 2.66699ZM16.0003 21.1737C13.147 21.1737 10.827 18.8537 10.827 16.0003C10.827 13.147 13.147 10.827 16.0003 10.827C18.8537 10.827 21.1737 13.147 21.1737 16.0003C21.1737 18.8537 18.8537 21.1737 16.0003 21.1737ZM23.8937 9.17366C23.827 9.33366 23.7337 9.48033 23.6137 9.61366C23.4803 9.73366 23.3337 9.82699 23.1737 9.89366C23.0137 9.96033 22.8403 10.0003 22.667 10.0003C22.307 10.0003 21.9737 9.86699 21.7203 9.61366C21.6003 9.48033 21.507 9.33366 21.4403 9.17366C21.3737 9.01366 21.3337 8.84033 21.3337 8.66699C21.3337 8.49366 21.3737 8.32033 21.4403 8.16033C21.507 7.98699 21.6003 7.85366 21.7203 7.72033C22.027 7.41366 22.4937 7.26699 22.9203 7.36033C23.0137 7.37366 23.0937 7.40033 23.1737 7.44033C23.2537 7.46699 23.3337 7.50699 23.4137 7.56033C23.4803 7.60033 23.547 7.66699 23.6137 7.72033C23.7337 7.85366 23.827 7.98699 23.8937 8.16033C23.9603 8.32033 24.0003 8.49366 24.0003 8.66699C24.0003 8.84033 23.9603 9.01366 23.8937 9.17366Z" fill="#0F1A27"/>
</svg>
