<svg width="32" height="27" viewBox="0 0 32 27" fill="none" xmlns="http://www.w3.org/2000/svg">
<path d="M10.0655 26.0027C12.5224 26.0181 14.9579 25.5456 17.2308 24.6125C19.5037 23.6794 21.5687 22.3043 23.3061 20.5669C25.0434 18.8296 26.4185 16.7646 27.3516 14.4917C28.2847 12.2188 28.7573 9.78323 28.7418 7.3263V6.46812C30.0154 5.53501 31.1178 4.38837 32 3.07903C30.8008 3.60353 29.5318 3.95139 28.2327 4.11176C29.6101 3.29107 30.6435 1.99927 31.1418 0.475394C29.8582 1.24549 28.4506 1.78686 26.9818 2.07539C25.9926 1.02138 24.6836 0.322748 23.2574 0.0875918C21.8312 -0.147564 20.3672 0.0938661 19.092 0.774527C17.8168 1.45519 16.8014 2.53714 16.2031 3.85296C15.6047 5.16879 15.4566 6.64514 15.7818 8.05358C13.1724 7.92549 10.6192 7.24924 8.28852 6.06886C5.95782 4.88847 3.90187 3.23042 2.25455 1.20267C1.42389 2.64438 1.17211 4.34787 1.5502 5.96823C1.92828 7.58859 2.90797 9.00474 4.29091 9.92994C3.27071 9.89059 2.27411 9.61154 1.38182 9.11539V9.18812C1.37275 10.6948 1.88032 12.1591 2.81993 13.3369C3.75954 14.5147 5.07443 15.3349 6.54545 15.6608C5.59656 15.9161 4.60261 15.9558 3.63636 15.7772C4.06223 17.0621 4.87517 18.1839 5.9637 18.9885C7.05223 19.7932 8.36304 20.2414 9.71636 20.2718C7.40249 22.1343 4.52668 23.1596 1.55636 23.1808C1.03557 23.1658 0.515996 23.1221 0 23.0499C3.00648 24.9654 6.50066 25.9753 10.0655 25.959" fill="#0F1A27"/>
</svg>
