<svg xmlns="http://www.w3.org/2000/svg" width="347.673" height="409.664">
  <path id="Midtjylland" d="M92.768 227.313c1.25-1.1 3.05-.81 4.5-.58.84.14 1.89.3 2.14 0s.27-.3 0-.94a8.533 8.533 0 0 1-.69-4.1 29.681 29.681 0 0 1 .3-3.12c.35-3.06.8-6.87-.56-8.12a6.33 6.33 0 0 1-2.1-4.85 11.752 11.752 0 0 0-.13-1.24 9.161 9.161 0 0 1-.08-1.68c0-1.85.05-4-2.44-5.66l-.19-.13c-3.2-2.19-6.82-4.67-6.63-7.86s3-6.76 6.32-8a42.756 42.756 0 0 0 5.42-2.58c1.23-.66 2.51-1.34 4-2.06 2.88-1.37 6.13-3.55 5.28-6.09-.71-2.11-4-5.34-6.09-7a22.147 22.147 0 0 1-2.9-3.38c-.76-1-1.59-2.07-2.46-3.08-1.67-.22-2.14.82-3.26 2.58-.94-.92-.72-.95-.15-2.14-.34-.07-1.84-.16-2-.44l-1.24-2.32a7.413 7.413 0 0 1-1.07-2 9.192 9.192 0 0 1 .92-2.36c.17-.44 1.41-.47 1.49-.91l.49-2.93c.17-1-3.27-1.19-4.16-1.39s-.89-.11-1.65.34-1.08.16-1.93-.11c-.44-.14-1.71-.27-1.74-.8s.17-2.19-.13-2.52c-.88-1-1.11.54-1.26 1a3.28 3.28 0 0 1-1.11 2s-1.78 1.71-.78 1.68l2.32-.09c0 .31.09 1.1-.2 1.25s-1 .76-1.28.61a4 4 0 0 0-2.56-.64l.06 3.65c0 1-.62 1.43-1.27 2.19-1.62 1.93-2.27-2-2.29-3.13a8.3 8.3 0 0 1 .12-3c.27-.74.48-2.17 1.1-2.68s2.11-1.3 2.55-2.07a9.41 9.41 0 0 0 .38-2.81c1.32.38 1.22.12 2.07-1l2.58-3.24c1.4-1.75-1.12-4.22-2-5.67a7.105 7.105 0 0 1-1.18-2.33c-.12-.58-.22-2.8-.69-3.14a14.444 14.444 0 0 0-2.71-1.94 13.144 13.144 0 0 0-3.14-.28 3.108 3.108 0 0 1-.06 2c-.86-.43-4.49-2.83-5.2-2.32a11.262 11.262 0 0 0-2.25 1.7c-.46.57-1.13 1.88-1.85 2.09-.46.14-2.82.53-2.95.94a13.221 13.221 0 0 1-.86 2.57c-.93 1.54-2.61 3.41-2.58 5.33a14.33 14.33 0 0 1 3.24-.58c.78.1.8.25.93-.51l.3-1.75c1 .2 0 2.16.63 2.34 1.43.4 1.2.43.93 1.9-.42-.13-2.53-1.18-2.46-.07 0 .68 2 1 2.1 2-.54.06-1.18.33-1.57-.11a5.435 5.435 0 0 0-1.13-1.21c-.24-.14-1.43-1-1.57-.8-.47.77-.37.91-1.25.69-1.55-.39-1.76.42-2.84 1.57-.55.59-.63 1.51-1.11 2.16-.74 1-3.09 5.31-4.25 5l-2.17-.63c-.4-.12-.59.42-.82.72-1.16 1.49.42.63.77 2s.36 2.11 1.35 2.91l2.78 2.21c1.38 1.11 1.46.95.4 2.36-.43.57-1.85 1.66-1.94 2.24-.13.79.91 2.2.93 3.19a7.644 7.644 0 0 1-.72 3.34c-.38 1-1.9.79-2.88.94s-2 .65-3 .89c-.7.17-2.1-1.27-2.11-1.94a3.545 3.545 0 0 0-1-2.83l-1.31 1.17c-.84-1.41-.89-1.33 0-2.66s.34-1.46-.55-2.79c-.69-1-.35-1.75-.74-2.86-.14-.39-.56-1.09-.45-1.5s.3-.84-.26-1.17a3.393 3.393 0 0 0-1 2.63c-.06.69-1.41 1.18-2 1.53-.85.54-4.51-1.65-5.42-2a29.29 29.29 0 0 0-5.18-1.6c-.93-.21-4.43-.37-4.79.38-.24.5-.91 2.58-1.46 2.39s.11-1.67 0-2.24c-.32-1.53-1.21-1.06.32-2.14a.831.831 0 0 0 .182-1.16.832.832 0 0 0-.642-.34 6.717 6.717 0 0 1-3-.58c-1.27-.56-1.25-.6-1.6-2s-3.45-1.77-4.79-2.17c1-1.41 2.41-1.5 3.87-2.36-.14-.22-.75-1.47-1-1.41l-1.73.56 1-1.64c.38-.59 1.32-2.85 2-2.45s.6.39 1.07-.23c.2-.26-.55-1.06-.72-1.32s-2.25.21-2.48.6l-2.11 3.56c-1.25 2.1-1.35 4-1.69 6.42-.31 2.22-1 4.42-1.5 6.6-.86 3.68-.85 7.78-1 11.55l-.32 8.52a17.571 17.571 0 0 0 .1 2.47c.13 1.53.1 1.53 1.44 2.32a16.792 16.792 0 0 1 .11-4.16 27.1 27.1 0 0 0 1-5.18c0 .59 1.67 1.75 2 2.38a18.681 18.681 0 0 1 .76 3.17c.49 1.84 2.49 3 3.86 4.27 1.13 1 1 4 1.24 5.51.27 1.65 4-.21 4.14 1.57.16 1.61.35 3.06-.87 4.27-.5.49-1.68 2-2.25 1.3a34.246 34.246 0 0 0-4.42-4.54 3.54 3.54 0 0 0-1.92-1c-.28-.06-2.71-.43-2.74-.66l-.91-5.93-1.32-.79c.33 3.78.76 7.55.86 11.35.13 5 .32 9.78-.56 14.75-.39 2.24-.86 4.48-1.21 6.73a45.032 45.032 0 0 0-.1 6.69 44.57 44.57 0 0 0 .33 5.68l.31 2.49c.07.58.33.34.91.28.92-.1.55-2.06.59-2.87.1-2.28.36-4.54.59-6.81.08-.76.5-2.05.07-2.73-.83-1.3-1-1.41-.53-2.85l2.41 1.67a4.362 4.362 0 0 0 2.31.38c1 .06 2.32 1.18 3.18 1.62s1.48 1.63 2.06 2.32a28.7 28.7 0 0 0 2.31 2.38c1.39 1.3.14.75.14 2.3 0 .51.73 1 .72 1.52s0 1.23 0 1.85a9.941 9.941 0 0 0 1.16 3.06c.36.82 1.82 1.82 2.52 2.53.3.3-.08.64.37.89s1.22.47 1.47.82c.68.93 0 2.31-.46 3.1-.37.64-.38.7.08 1.32.25.33.07 1.07.07 1.47 0 .87-1.38 1.86-1.93 2.47a12.189 12.189 0 0 1-2 2.17 15.588 15.588 0 0 0-2.93 1.88c-1.12 1.18-1 1.55-2.5.82-.63-.31.42-2.69.55-3.36s.06-.71-.6-1.05c-.29-.15-.57.62-.72.87-.2-.32-1.13-1.42-1-1.73.38-.8.78-1.28-.29-1.32s-1.38-.32-1.36.69c0 .64.55 1.78-.32 1.93 1 2.23-.11 3.55-1.72 5.11-.57-1.38.37-2.24 1.09-3.51.13-.24-1.08-1.18-1.21-1.46a5.176 5.176 0 0 1-.27-1.4 11.111 11.111 0 0 1-.39-3.27c.31-1.39.08-1.78-.51-3.1-.26-.58.59-.6.61-1.1 0-.29-.72-.89-.87-1.16-.46-.8-.65-1.77-1.06-2.6-.19-.39-1.21-3.36-2-1.92-.25.43.42 2.09.55 2.67.46 2.07.92 4.13 1.29 6.22.68 3.81 1.53 7.82 2 11.85 0 0 3.49-1.2 4.09-.93.43.19 1.41 2 1.93 2.44 0 0 1.3 1.13 1.36 1.17l3.74-.24.87-2a.853.853 0 0 1 .48-.45.832.832 0 0 1 .67 0c1.18.6 2.32 1.28 3.42 1.94a27.33 27.33 0 0 0 6.8 3.27h.1v-.12c.07-.17.15-.37.26-.6l1.64-3.12c.26-.53 1.64-1 1.75-1a2 2 0 0 0-.82-1.58.84.84 0 0 1 .017-1.188.819.819 0 0 1 .113-.092l2.77-1.87a1.006 1.006 0 0 1 .55-.17c.66 0 1.27.61 2.4 2a18.291 18.291 0 0 1 2.46-1.35 20.17 20.17 0 0 1 7.22 1.68 10.169 10.169 0 0 1-.08 1.51 8.5 8.5 0 0 0-.1 1.16l6.5.29a3.1 3.1 0 0 0 0-.68c-.07-.1-1.2-.81-1.35-.93a.853.853 0 0 1-.33-.67.832.832 0 0 1 .33-.66c.24-.18 1.08-.77 1.24-.89a1.69 1.69 0 0 0 .76-1.25l.31-2.45c.08-.64.71-1.07 1.74-1.7l.8-.54a3.55 3.55 0 0 1 2.9-.46l5.35.71a.831.831 0 0 1 .59.36.821.821 0 0 1 .13.33.862.862 0 0 1 0 .35c0 .09-1 3.35-1.2 4.26l3.49 1.68.07-1.07a.839.839 0 0 1 .896-.784.8.8 0 0 1 .217.043 8.338 8.338 0 0 0 1.61.56c.18-.17 1.69-1.46 1.82-2 .4-1.7.66-2 2.18-2.32l2.78-.61c.38-.53 3.26-4.07 3.71-5.29l1.43-3.87a1.84 1.84 0 0 1 1.86-1.07 3.17 3.17 0 0 1 2 .69 2.392 2.392 0 0 1 .42 1.26l2.07.65a4.7 4.7 0 0 1 1.347-3.559Z" />
  <path id="Oestjylland" d="M131.548 266.544c-.31 0-.149-.93-.31-1a4.855 4.855 0 0 0-1-.07l-3-.21c-.709-.05-1.58-.82-2.179-1.16s-.98-1.22-1.49-1.47-1.121-.65-1.72-.93c0 0-.05-1.13-.06-1.23s.019-.169.169-.42a2 2 0 0 0 .34-1.5c-.019-.08-.57-2.1-.76-2.52a1.251 1.251 0 0 0-.78-.79l-2.88-.83a3.671 3.671 0 0 0-1-.21 2.645 2.645 0 0 0-1.58.72s-.47-.44-.51-.62.15-.729 1.25-2.29c.24-.34.449-.64.59-.88a.84.84 0 0 0-.313-1.147.855.855 0 0 0-.137-.063l-2.48-.86a1.162 1.162 0 0 0-.321-.05 1.4 1.4 0 0 0-.59.16c-.27.16-1.509 1.16-1.559 1.16a.707.707 0 0 1-.39.091 2.01 2.01 0 0 1-1-.35.738.738 0 0 1-.26-.31l-.21-.67a7.781 7.781 0 0 0-1.9-3.61 6.506 6.506 0 0 0-2.84-1.65 2.85 2.85 0 0 0 .55-1.64 2.577 2.577 0 0 0-.23-1c-.089-.21-4.82-5.85-4.82-5.85a5.971 5.971 0 0 1 0-1.73c.06-.78-4-2.61-4.189-2.61a3.467 3.467 0 0 0-1.381.69l-1.58-.49a3.8 3.8 0 0 1 .81-2.78c.72-.64 1.94-.45 3.27-.23s2.71.44 3.51-.48a2 2 0 0 0 .26-2.5 7.113 7.113 0 0 1-.579-3.46c.039-.86.16-1.9.29-3 .44-3.58.91-7.63-1-9.4a4.879 4.879 0 0 1-1.619-3.85 12.873 12.873 0 0 0-.15-1.4 8.108 8.108 0 0 1-.05-1.4c.019-1.921.06-4.76-3.1-6.921l-.191-.129c-2.89-1.96-6.14-4.19-6-6.54.15-2.67 2.55-5.67 5.34-6.67a43.91 43.91 0 0 0 5.6-2.72c1.26-.62 2.52-1.29 4-2 6.189-2.91 6.709-5.911 6.05-7.91-1.092-3.26-6.361-7.5-6.582-7.68a22.262 22.262 0 0 1-2.639-3.12c-.83-1.08-1.69-2.26-2.689-3.35a4.024 4.024 0 0 1 .279-1.479c.551-1.451-.14-1.31-1.14-.651-.49.31-2.15 1.77-2.73 1.631-.919-.191-2.33-.71-2.179-2s.3-2.6.45-3.86.94-1.29 1.5-2.36a13.263 13.263 0 0 0 .581-3.411 6.709 6.709 0 0 0 0-2.89 8.444 8.444 0 0 1 5 1.1 2.224 2.224 0 0 0 1.29 1.57 21.77 21.77 0 0 0 3.67 1.179 1.345 1.345 0 0 0 .57-.11c.581-.26 2.221-3.32 2.221-3.39a2.03 2.03 0 0 0 .089-.68c-.01-.31-.15-1.61-.15-1.77l.92.07.06.24c.29 1.22.29 1.22-.47 2.22a1.118 1.118 0 0 0-.22.47c-.169.82.61 1.612 1.36 2.29l1.41 1.19a2.678 2.678 0 0 0 2.09.621c.5.011 6.13.26 7.35.54l-.29.08c-.65.23-.891.98-1.1 2.23-.069.39-.33 2.1-.33 2.17a1.182 1.182 0 0 0 0 1 5.67 5.67 0 0 0 3.151 1c.41-.211.659-1.15.659-1.15.41.01 1.52-.12 1.74-.12h.1c.119.05 2.6 3.72 2.91 3.919a1.47 1.47 0 0 0 .3.161c.7.309 2.91-.621 3.851-.69.719 0 3.43 1.3 4.82 1.3.4 0 2.419-.27 2.68-1.479.019-.1.14-.69.14-.69s4.02-1.85 5.65-3.571a7.826 7.826 0 0 1 1.871-.148h.81a6.857 6.857 0 0 0 2.46-.582l.37-.189c.7-.351 1.44-.8 2.31-1.352 1.09-.678 2.229-1.439 3.61-2.439a3.479 3.479 0 0 0 1.119-1.561 2.1 2.1 0 0 1 .44-.739 1.385 1.385 0 0 1 .69-.341c.81-.18 1.14-.52 1.47-1.74s.33-1.221 1.4-1.94c.19-.129 1.44-1.45 1.44-1.45 1.071-.331 2.35-2.371 3.48-2 1.59.53 1.69.54 3.151-.25a7.008 7.008 0 0 1 3.31-.551c.219 0 .68 2.7.75 3l.39 1.73c.1.43-.82.321-.9.75-.23 1.16.14.93 1.24 1.16-.329 1.15-.609 3.081-1.329 4-.871 1.11-2.98 1.289-3.81 2.43-.451.609.039.72-.7 1.25a10.133 10.133 0 0 0-2.08 1.49c-.851 1.11-.322 3.46-2.111 3.11.28 1.63.92 3.469.71 5.119-.061.67-.161 5.31-1 5.56a29.516 29.516 0 0 0-5.77 2.08c-.184.111-.541-.163-.936-.435a1.848 1.848 0 0 0-1.065-.455 11.935 11.935 0 0 0-2.87.38c-.39.17-2.281.73-2.281 1.11.081 1 1.5.22 2.08 0a3.155 3.155 0 0 1 2.51-.16c.67.15 1.9.72 2.569.49 1.95-.67 3.871-1.351 5.781-2.13 1.7-.678 3.289.39 5 1 .31-1.32-.07-1.1-1.36-1.459l-2-.56c-.57-.2-.3-.45-.169-1 .51-2.24.28-4.37 1.1-6.52a6.52 6.52 0 0 0 .46-3.081c-.05-1.359.811-1.78 1.811-2.779a22.155 22.155 0 0 0 1.689-2.431c.49-.639 2.28-.78 2.44.15a7.941 7.941 0 0 1 0 3.14c-.08.46 2.07 2.09 2.459 2.459.631.61 1.4 1.2 2 1.7s1.9 2.071 2.68 2.2l7 1.129a13.646 13.646 0 0 0 2.791-.16 14.577 14.577 0 0 0 3.6-.219c.811-.28 1.351-1.47 2.23-1.47l4.361-.15a34.569 34.569 0 0 0 6.329-1c.621-.09 1.77.67 2.331.91l3.59 1.551c.39.169.68 2.6.79 3.059.18.72 1.55 1.51 2.11 2l2.87 2.55a6.456 6.456 0 0 1 1 2.52c-.45.37-2.051 1.409-2.11 2l-.35 3.311-.49 4.67a12.4 12.4 0 0 1-.28 2.66 15.822 15.822 0 0 1-1.68 2.68 21.37 21.37 0 0 1-1.89 3c-.67.74-1.72.95-2.07 1.95l-1.48 4.17c-.29.83-1.12 1.17-1.82 1.68l-3.461 2.489c-.429.311-.169 2.44-.169 2.941-.01.789.26 2.3-.13 3l-2.06 3.71c-.56 1-1.271.9-2.4 1.15a5.193 5.193 0 0 0-1.451-3.12 15.482 15.482 0 0 1-2.079-3.42c1.4.12 3.58.349 3.06-1.7-.131-.531-.181-1.7-.64-2l-2.641-1.68c-1.18-.709-2.66 1.34-3.18 2.06a28.715 28.715 0 0 0-2.89 4.29c-.2.441-1.05 1.64-.9 2.11.219.71.44 1.4.709 2.08.76 1.87.581 2.93.34 5a3.347 3.347 0 0 1-1.509.88c-.76-.11-1.79.05-2.11-.7a15.621 15.621 0 0 1-1.37-5c.167-.012.376-.007.6 0 .723.017 1.6.036 1.779-.53a24.208 24.208 0 0 0 .65-2.929 9.243 9.243 0 0 1-3-.26 19.12 19.12 0 0 0-3.12-1.36c-.34.49-1.18 2.539-1.85 2.49-.144-.011-.375-.01-.647-.01-.991 0-2.542.006-2.542-.551-.111-1.9-.22-1.91-1.731-3-.249-.18-1.069-.539-.9-.869.4-.781 1.169-.31 1.86-.14 1.14.28 1.87-.249 2.43-1.36.39-.78.37-1.04 1.19-1.2.7-.139 1.16-.35 1.7.2-.2.2-.77.58-.841.85a4.722 4.722 0 0 0 .46 1.53 3 3 0 0 0 2.591-.38c.79-1.179.47-1.459 0-2.79.08.23-2.17-.449-2.311-.52a41.921 41.921 0 0 0 4.54-4.52l1.02-1.531c.351-.42-.31-.64-.65-.93-.712-.61-1.1-.1-1.48.416-.289.4-.566.791-.97.674-.93-.27-.4-.559 0-1.06s.05-.65-.3-1.169c-.59-.85-1.96-.48-2.82-.39-.581.06-2.921.01-3.22.44s-.61.789-.56 1.24.5 1.25.05 1.45c-1.11.48-2.37.61-2.32 1.821s-.71 2.07-1.32 3.07c-.161.28-.87.39-1.291.55s-.5.43-.75.83q-.922 1.579-2 3.061a2.869 2.869 0 0 1-.86.87c-.28.12-1.05.3-1.21.57l-2 3.36c-.15.191.939.51.85.69a19.589 19.589 0 0 1-1 1.71c-.54.931.56 2.19 1 3.11a37.667 37.667 0 0 1 2 6.52l1.061 3.85c.35 1.25-.521 1.561.8 2.36l-2.36 2.35a4.179 4.179 0 0 0-.46 2.48c.61.85 1.18 1.28 1 2.281l-.76 4.23-.22 1.24c0 .069-.216.033-.448 0s-.492-.073-.552 0l-2.259 2.86c-.311.4-.54.33-1.071.33-.34.02-.24 1.16-.24 1.45-.05.781.04.74.76 1.13.43.23.23 1.17.23 1.62-.29-.1-.62-.07-.91-.18l-.371 2.08a6.449 6.449 0 0 1-3.2-2.43 2 2 0 0 1-.44-1.9c.061-.65-.46-1.059-.85-1.569l-.919 1.6c-.17-.35-.48-1.47-.88-1.47l-3.431.23c-1.769.119-3.549.169-5.32.229h-.318c-.514-.006-1.433-.012-1.433.143-.05.44 0 2.23-.449 2.23l-3.43.079a1.459 1.459 0 0 1-.719-.21 1.012 1.012 0 0 0-.951-.14l-2.88 1.25c-.75.37-.43 1.09.36 1a9.847 9.847 0 0 1 4.49.7l6.15 1.881c.356.106.437-.3.519-.711.078-.394.156-.788.48-.719 1.291.26 1 .47 1 1.7.57-.06 1.41-.42 1.731.11.18.3 1.07 1.36.84 1.64l-3.37 4c-.3.34-.03 1.19 0 1.75s.74.46 1.23.56l2.87.62c.831.18.56.41.46 1.25l-1.91-.26c-.77-.08-.69.29-1 1-.409.94-2.569 1.2-3.51 1.52a4.592 4.592 0 0 0 .38 1.37 3.289 3.289 0 0 0 1.413.155h.427c.26.03.56 1.271.651 1.51.3.79.379.9-.36 1.459-.311-.36-.881-1.45-1.36-1.24a9.732 9.732 0 0 1-2.37 1l-5.93.581c-1.51.14-3.17 1.379-4.51 2a5 5 0 0 1-1.733.31c-.107 0-.213-.004-.318-.01Zm60.111-12.06-3.571-.28c-2.08-.16-2-2.09-2.08-3.64s-.709-4.11-.219-5.551c.18-.42.63-2.53 1-2.619.639-.16 1.94-.2 2.43-.63.73-.639 1.14-.819 1.229-1.76l.28-3c1.36.04 1.39-.02 2.08 1.14a4.62 4.62 0 0 1 .56 2.48l3-1.09c.781-.29.091-1.93 1.43-1.57a15.321 15.321 0 0 1-1.581 4.75l-1.81 3.151c-.38.669-.01 1.6.1 2.33.29 2.01-.87 3.76-1.63 5.62-.245.587-.294.715-.615.715-.138-.001-.326-.025-.603-.046Zm-.6-18.01c-.709-.28-.6-1.23-.709-1.84s-.99-.861-1.5-1.15a4.073 4.073 0 0 0-1.81-.709c-.83-.1-.73-.15-1.04-.941l-1-2.8c-.34-.919-.44-.769.39-1.589s1.77-2.57 2.92-2c.89.44.7 3.3.811 4.24.19 1.309 1.19 1.76 2.19 2.6l2.27 1.91c.74.62.81.449.43 1.44-.225.584-.5.411-.839.238a.856.856 0 0 0-.782-.108c-.735.329-.339.892-.714.892a1.931 1.931 0 0 1-.618-.182Z" />
  <path id="Nordjylland" d="M130.918 153.153h-.321a4.636 4.636 0 0 0-.5 0 28.277 28.277 0 0 1-2.831.76 29.375 29.375 0 0 1-2-2.85 2.323 2.323 0 0 0-2-1.361s-2.41.13-2.5.13a1.456 1.456 0 0 0-.89 1.18l-.52-.19c.031-.149.45-2.729.45-2.909 2.21-.531 1.25-2.821-.06-3.251-1.79-.579-7.2-.579-7.68-.579-.861-.02-3.06-2.181-3.06-2.181a3.6 3.6 0 0 0 .52-3.619c-.1-.36-.52-1.36-2.351-1.36a5.33 5.33 0 0 0-1.2.139c-.82.22-.74.95-.61 2.22.03.28.21.991.1 1.18s-1.14 2.241-1.29 2.411a12.464 12.464 0 0 1-2.2-.75 6.655 6.655 0 0 0-1-.341c-.01-.03-.12-.49-.19-.649a1.614 1.614 0 0 0-.91-.859 19.789 19.789 0 0 0-3.07-1.061 7.1 7.1 0 0 0-2.949-.129c-.441-1.731-1.211-3.64-3.091-2.841-1.091.46-2.161.891-3.26 1.29-.891.321-1.4 1.521-2.291 1.832-.309.1-1.159.558-1.419.409s-1.44-.58-1.53-.851c-.18-.56 1.19-2.02 1.53-2.43a22.145 22.145 0 0 0 4.1-6c.52-1.351.72-1.25-.48-2-.429-.32-2.949-1.51-2.9-2a5.738 5.738 0 0 0-.718-3.22c-.332-.821-.851-1.7-.271-2.44l2.6-3.41a2.634 2.634 0 0 0 .08-2.55c-.719-.791-1.469-1.56-2.17-2.371-1.03-1.149-1.051-1.429-.92-3 .069-.891 1.2-2.13 1.649-2.89a12.949 12.949 0 0 1 2.13-2.14 4.662 4.662 0 0 0 1.78-2.381c.521-1.429 1.071-1.619 2.41-2.429.74-.45.391-1.46 1.33-1.81 1.38-.52 2.741-1.08 4.1-1.64a16.486 16.486 0 0 1 5.559-1.431 45.765 45.765 0 0 1 8.812 1.17c.63.14 3.379 1.38 3.2 1.92a33.989 33.989 0 0 0-1 4.25l-.91-1.089c-.35.929-.771 1.51-.5 2.51.34 1.219.22 2.729 1.58 2.85 1.77.159.98-4.81 2.11-5.33a8.507 8.507 0 0 0 2.561-2 7.935 7.935 0 0 0 1-1c.3-.43.28-1.16.72-1.48a3.432 3.432 0 0 0 1.85-2.69c.4-1.45.61-1.33 2-1.9l3.409-1.39c.881-.349 2.42-.069 3.42-.069a8.553 8.553 0 0 1 2.781 1.059c.551.221 2.7-1.139 3.26-1.379a5.014 5.014 0 0 1 3.2-.027 6.209 6.209 0 0 0 2.721.157c1.609-.351 4.35-3.121 5.709-2.35 1.881 1.05 3.341 2.92 4.88 4.38a63.794 63.794 0 0 0 5.55 4.2 21.538 21.538 0 0 0 5.37 2.708c1.679.671 3.84-.069 5.571-.159-.231 1.609-.11 2.23-1.421 3.231l1.12.479-1.821 2.8c-.5.79-.33 2.041-.33 2.94-.08 2.12-.08 4.191-.08 6.31a42.722 42.722 0 0 0 .21 6.32c.33 1.979.24 4.92 1.33 6.631.61 1 4.22 5.169 2.1 6-1.651.6-4.551.12-6.21-.16s-1.78-.19-3.13.81a1.59 1.59 0 0 1-2.23-.288 1.657 1.657 0 0 1-.24-.442c-.26-.47-2.85 0-3.42 0-1.211.049-1.6 1.28-2.27 2.23l-.45.639c-1.051-.84-.97-.859-2.139-.22-.691.391-1.54.58-2.171 1-1.619 1.079-3.219 2.251-4.869 3.25a14.4 14.4 0 0 1-5 1.73l-3.95.9c-.66.129-1.61 0-1.11 1l7.279-1.3c1.6-.279 4.061-.5 5.261-1.64a15.087 15.087 0 0 1 3.209-2c.611-.38 1.511-2 1.94-2 .891.02 1.04-.01 1.48.781.161.29 1.071-.311 1.33-.431 1.02-.45 1.061-1.789 1.38-2.788.189-.611 2.15-.351 2.62-.13.681.33 2.44 1.03 2.68 1.8.031.09.1.24.1.24s-1.041 1.01-1.149 1.08a3.8 3.8 0 0 0-2.081 2.9c-.12.44-.18.54-.23.54a3.01 3.01 0 0 0-1.39.691 3.44 3.44 0 0 0-.91 1.36 1.994 1.994 0 0 1-.56.87 49.929 49.929 0 0 1-5.729 3.679 4.989 4.989 0 0 1-2.22.58c-.031 0-.178-.014-.4-.03-.8-.056-2.577-.112-3.258.67-1.421 1.57-5.351 3.32-5.351 3.32-.649.3-.849 1.67-.849 1.67l-.67.2a.38.38 0 0 1-.125.015 44.494 44.494 0 0 1-4.726-1.206Zm-96.43-2.97a6.8 6.8 0 0 1-1.22-2.43l-1.449-3.29c-.561-1.27-.22-1.389-1.662-1-.209-1.319-.139-1.4-1.29-2l-3.42-1.779c.911-1.75 1.061-1.84 2.911-2.5.33-.12 1.43-.73 1.75-.53l1.11.7c.28.179-.55.57-.139.781s1.219.92 1.629.639l2.5-1.72a3.524 3.524 0 0 1 3.941-.27c.57.4-1.32 3.43-1.18 4.161.08.41.931 1.06 1.25 1.409.61.67.449.891.34 1.811l-.33 2.829c-.08.691-1.12.57-1.74.691-.93.151-.95.21-1.53 1.01s-.021.83.71 1.4c-.533.628-.766.915-1.019.915s-.535-.295-1.162-.827Zm-13.76-13.94c-.62-1.52-1.41-2.85-2.06-4.4s-.559-2.809-1.51-4.26a5.73 5.73 0 0 0-3-2.45c-.93-.25-.981.09-1.181 1.09-.08.18.781.33.921.33.569.159.43.2.43.791a6.079 6.079 0 0 1-.269 2.1c-.341.929.25.95.3 1.849a3.922 3.922 0 0 1-.651 1.86c-.869.781-.78.74-1.72.061.681-1.85-.91-4.231-.33-6.1l2.24-8.169c1.16-4.24 4.091-8.12 6.22-11.93a75.524 75.524 0 0 1 7.52-10.55c1.35-1.68 2.29-3.671 3.67-5.33.531-.629 2.05-.46 2.87-.629.6-.13 1.571-1.92 1.94-2.39 1.44-1.83 2.851-3.66 4.21-5.55.719-.949.84-1.609 2-1.609a8.542 8.542 0 0 1 2.9.149c2.12.709 4.74 2.14 7 2.331a13.613 13.613 0 0 0 3.07-.54 32.085 32.085 0 0 0 3.47-.611c1-.3 2-.81 3-1.21a12.068 12.068 0 0 0 3-1.239l2.79-2.371c.69-.6 1.99-.48 2.851-.6.66-.091 2.03-.57 2.659-.311l3.7 1.539a10.225 10.225 0 0 0 5.27 1l8.37-.26c1.85-.1 4.009-1.281 5.68-1.8s3.73-.82 5.19-1.821l7.109-4.85c3.661-2.47 6.031-6.7 8.661-10.1s4.87-6.94 7.18-10.57c.95-1.431 2.479-3.13 2.949-4.781.629-2.079 1-4.5 2-6.41a22.911 22.911 0 0 1 3.541-5.3l3.206-3.373a11.418 11.418 0 0 0 1.811-1.879l3.249-5.811c1.371-2.45 3.371-1.68 5.78-1.31a43.775 43.775 0 0 0 6.76.36c2.12 0 4.45-.949 6.449-1.449a17.146 17.146 0 0 0 5-2c1.95-1.108 4.47-2.048 6.2-3.538s3.5-2.991 5.23-4.441 3.79-3.67 5.73-4.56 3.53-2.32 5.36-3.42c.98-.59 2.13-1.03 3.14-1.511s2.171-.189 3.25-.138 1.81.449 1.24 1.51c-.23.47-2.05.389-2.681.82a31.562 31.562 0 0 0-5.529 4.79 41.315 41.315 0 0 0-3.6 5c-1.13 1.641-2.841 3.421-3.55 5.291l-1.521 3.549c-.27.721.15 1.662.3 2.381.479 2.1.439 4.7 2 6.24l2.681 2.66c.569.59 1.949.8 2.209 1.59.32.96.451 2.171 1.239 2.82 1.292 1.06 1.5 1.02 1.6 2.74s.311 1.78-1.179 2.64c-.761.419-.46 2.6-.46 3.419-.091 2.13-.461 4.261-.461 6.39-.1 4.55.98 8.77 1.34 13.26.1 1.221.35 1.909-.33 2.911a11.35 11.35 0 0 1-1.891 2.239 34.484 34.484 0 0 0-4.879 5 50.258 50.258 0 0 0-3.74 5.94c-.99 1.821-1.21 4.331-1.5 6.331a20.39 20.39 0 0 0-.3 3c-.04.78-1.12 2.179-1.46 2.83-.709 1.35-1.58 4.49-3.37 4.49h-3.679c-.74 0-1.811.569-2.411.18a44.56 44.56 0 0 1-5-4 49.618 49.618 0 0 0-4.829-4c-1.84-1.27-3.77-2.28-5.59-3.609-.461-.34-1.481-1.111-2-.68-.841.689-1.72 1.34-2.5 2.1a3.283 3.283 0 0 1-2.82 1.261 5.347 5.347 0 0 1-2.819-.521 57.658 57.658 0 0 1-5.32-3.569 18.872 18.872 0 0 1-2.311-1.931c-.909-.849-1.551-.63-2.28.151l1.51 1c-.47.78-.889.33-1.469-.06a15.392 15.392 0 0 1-.9 2.64 2.809 2.809 0 0 1-2.5 1.569c-1.351.241-1.331-.4-2.491-1a13.193 13.193 0 0 1-2.669-1.35c1.13-.24 1.919 0 1.919-1.24 0-.32-.639-.46-.9-.58-.68-.32-.54-.32-1.12.331s-1.811.578-2.129 1.369c-.561 1.349-.07 1.689 1.309 1.86-1.06 1.55-1.371 2.281-3.37 2.111-.781-.07-.631 1.281-1.061 1.281l-2.649-.251c-.078-.007-.548.092-1.12.191-1.207.209-2.865.418-2.26-.362a7.839 7.839 0 0 1 1.87-1.76c.72-.51.48-.851.391-1.73-1.18.111-1.22.129-1.621 1.19a5.486 5.486 0 0 1-1.329 1.81c-1.13 1.271-2.471 1.191-4.13 1.531a31.339 31.339 0 0 0-9.269 3.25 27.693 27.693 0 0 0-3.861 2.759c-.359.291-1.379 1.052-1.539.052-.081-.851-1.271-1.061-2-1.42a13.347 13.347 0 0 1-3.56-2.88 21.069 21.069 0 0 1-1.561-1.59c-.8-.96-.841-1.29-2.08-1.16l.16 1.4-2.78.29c-1.361.14-1.66-.16-1.66 1.229a1.8 1.8 0 0 1-1.94 1.641c-1.071-.18-.931-1.4-.83-2.09a11.682 11.682 0 0 0-3 .8c-1.19.56-2.01 1.391-3.29 1.561-.93.119-1.74 1.479-2.331 2.2-.949 1.15-1.88-.481-2.459-1.5s.889-1.96-.27-2.81c-.71-.52-.74-.67-1.551-.39-.29.1.28 1.22.35 1.51.14.57.74 3.28-.78 2.41a34.253 34.253 0 0 1-3.22-2.069c-.419 2.479 2.88 1.618 3.17 3.409.321 1.95-2.709 1.95-3.81 2.949-1.68 1.541-2.84 1.15-5.1 1-1.619-.11-4.119-.24-5.05 1.229-.469.7.58 1.49-.109 2a5.379 5.379 0 0 0-1.75 2.25c-.789 1.45-1.71 3.781-1.06 5.451.52 1.32-1.77 3.43-2.61 4.53a11.812 11.812 0 0 1-2 1.91c-.351.29-2.071-.36-2.541-.46 0 1.139.09 1.159-1 1.509a.946.946 0 0 1-.675.008c-.233-.075-.4-.15-.776.262l-2.11 2.331c-.6.659-.21 1.1.149 1.93.611 1.371 1.39 2.729.611 4.29a7.028 7.028 0 0 1-1.141 1.888c-.59.612-1.62 1.151-.52 1.791l1.451-1.46c.19-.188 1.521.64 1.77.76.969.461 2 1.892.57 2.392.77 1.11.57 1-.35 2-.47.5-1.96-.69-2.241-1.15-.54-.9-1.27-.71-2.27-.831a1.169 1.169 0 0 0-.886.39 1.245 1.245 0 0 1-1.114.371 1.17 1.17 0 0 1-.5 1.12c-.289-1.47-.939-.63-1.359.279-.552 1.141-.311 1.261-1.551 1.45a1.339 1.339 0 0 1-.2.015c-1.157-.006-2.188-1.524-2.567-2.471Zm22.32.73-1.11.321c-.439-1.071.1-1.2.9-1.821-1.139-1.01-1.85-1.1-1.249-2.539 1.169.55 2.54 1.92 3.17.46l-1.78-.66 1.259-.41c-.82-1-2.579-.3-3.659-.17-.49.06-.8-.78-1.051-1.151-.439-.62-.3-.568-1.15-.349s-.83.14-1.51-.429c-.289-.25-.59-.741-.93-.49-.73.54-1.9 1.929-2.9 1.72v-2.28l2-1.6c.48-.429 1.75-.129 2-.429s-.21-2.119-.26-2.64-.59-.93-.92-1.32c1.29-.5 1.21-.5 2.21.5.01-1.41-.041-1.259 1.33-1.41a8.562 8.562 0 0 1 2.579.171c1.731.3 2.81-.551 4.081-1.55-1.531-1.19-2.38-2-4.29-2.281l.921-1.93a7.032 7.032 0 0 1 .608 1.26c-.08-.28.281-1.219.2-1.7a4.324 4.324 0 0 1 .111-1.57 26.087 26.087 0 0 1 1-3.87c.43-1.3 5.28-.6 6.641-.6.3 0 .339-1.09.709-1.09.6.07 1.21.1 1.8.22 1.689.331 1.74.649 2.369-.949a9.541 9.541 0 0 1 1.54-3.09l2.52-2.86.65 1.08 1.12-1.221c.154-.16.436-.093.716-.026a.945.945 0 0 0 .644.026c.48-.29.86-2.11 1.089-2.659 1.581.27-.109 2.791-.38 3.689s.1 2.23 0 3.229c-.119 1.16.011 2.7-.509 3.771l-1.95 4-.051-2.951-1.37.552v-1.171c-1.539 1.79-2.379 2.59-1.539 4.851l2.59 7-1.41.21c.08.379.479 1.13.33 1.59s-1.05.71-1.311 1.12c-.5.81-.33 1.96-.849 2.81a37.084 37.084 0 0 1-4.57 5.85c-.41.449-.36.551-.36 1.18s-.43.58-1 .831a14.206 14.206 0 0 1-3 1.218l-4.39.73a7.547 7.547 0 0 1-.957.135c-.441 0-.434-.287-.633-1.308Zm177.041-65.86c-1.469-.51-1.75-.28-1.591-1.84-1.28-.33-1.56.93-2.83.93-.14 0 .08-1.38 0-1.49-.21-.27-1.4-.4-1.73-.5-.81-.24-.03-1.77-.61-2.36l-2.38-2.5 2.56-3.571c.591-.82 2.47-.959 3.382-1.239a22.032 22.032 0 0 0 6-2.89c.79-.52 2.69-.4 3.521-.52a2.748 2.748 0 0 1 1.259.248 2.358 2.358 0 0 0 1.291.232c.889-.23 1.05-1.51 2.1-1.439l4.311.28c1.609.1 1.4.1 1.4 1.75.021 1-1.01 1.55-1.71 2.22-.276.265-.934.2-1.569.129a3.07 3.07 0 0 0-1.291.011c-.622.27-2.591.65-2.841 1.27l-1.571 3.87c-.29.73-1.459 1.54-1.85 1.94s-2.339 1.831-2.339 2.4c0 .78.39 2.56-.29 3.07a2.239 2.239 0 0 1-1.347.58 6.819 6.819 0 0 1-1.876-.581Z" />
  <path id="Sydjylland" d="m87.488 376.923.21-3.381a.7.7 0 0 0-.45-.7l-6.09-2.3h-.16l-7.86-1-1.65-1.589a.674.674 0 0 0-.37-.19l-9.31-1.63-6.06-.591a.8.8 0 0 0-.24 0l-6.89 1.681-4.38-2.94a.7.7 0 0 0-.621-.08 8.351 8.351 0 0 0 .4-3.76c-.07-.989 1.44-2.43 1.19-3.15-.439-1.4-.98-2.8-1.439-4.209a19.374 19.374 0 0 1-1.16-3.14 20.352 20.352 0 0 1 .89-7.4 22.79 22.79 0 0 1 1.4-4.081c.341-.709.82-2.95 1.34-3.379-.3.22-1.99-.78-2.469-.78h-4.25c-.6-.01-2.22-.36-2.51.24a6.2 6.2 0 0 0-.679 3.51 7.235 7.235 0 0 0 .349 2.839c.591 1.2.63 1.9-.569 2.831-.461.351-1.93 1.89-2.39 1.781-1.59-.39-1.69-.311-2.37-1.76-.54-1.14-1.041-2.311-1.641-3.42-.389-.72.161-2.531.251-3.33a55.487 55.487 0 0 1 1-6.351 5.917 5.917 0 0 1 1.4-2.8c.76-.97.839-2 2-1.1a6.735 6.735 0 0 0 2.94 1.31c.629.17 2.62 1.21 1.94 2a5.654 5.654 0 0 0-1.78 3.62l6.46-.07c.76-.01 1.77-.86 2.27-1.169s-.1-1.6-.21-2.09c-.49-2.12-.95-4.21-1.61-6.28-.271-.88.429-1.88.408-2.88s-.129-2-.19-3c-.27.109-1.01.58-1.139.27-.359-.87-.371-.69.42-1.39s-.041-1.9.26-2.811l1.149-3.5c.22-.671-1.05-2.22-1.45-2.93s.45-1.26.13-2l-1.59-3.62a23.067 23.067 0 0 1-.52-2.8c-.4-1.55-.49-1.53-1.921-2.26a12.43 12.43 0 0 1-2.8-1.64c-1.19-1.1-1.71-.51-3.19 0-.72.21-2.17-.73-2.85-1a4.649 4.649 0 0 0-3.2-.34c-2.06.33-1.831-3.21-2.7-4.21-1.479-1.79-2.779-3.8-4.71-5.12a22.784 22.784 0 0 1-2.04-1.61c-.52-.46-.13-1.58-.43-1.891s-1.54-1.4-1.3-1.74c.449-.69 1.18-.76 1.92-1-.379-.9-1.03-2.32-2.09-2.63-1.61-.469-2.13 1-2.7 2.06-.77 1.431-1.39 2.161-1.2 3.75a3 3 0 0 0 2.5 2.42l-1.22 1.13c.68.621 1.44 1.28 2 1.88s2.139 1.709 2.22 2.54c.06.67.64 2.77.16 3.25-.79.74-1.33-.49-2-1.081l-6-5.25a19.188 19.188 0 0 0-1.82-1.31 13.194 13.194 0 0 0-2.89-2l-3.69-1.13c-.52-.16-2.079-1.25-1.88-1.77q1.17-3.111 2.4-6.2c1.8-4.53 3.211-9.07 4.57-13.78a32.833 32.833 0 0 0 .79-12.351s2.42-.779 2.93-.92h.14s2.3 3.64 4 3.64c0 0 4.209-.25 4.549-.379a1 1 0 0 0 .6-.54l.651-1.49c.86.49 1.709.98 2.569 1.49a50.317 50.317 0 0 0 7.66 3.53 1.5 1.5 0 0 0 1.69-1.2c.06-.14 1.65-3.54 1.73-3.591s2.09-.75 2-1.629a4.08 4.08 0 0 0-.69-2.281l1.6-1.08c.19.18 1.41 1.62 1.49 1.7a.92.92 0 0 0 .88.27 23.011 23.011 0 0 0 2.68-1.491c.11-.01 5.081 1.041 5.31 1.1-.01.06-.449 2.19.23 2.81a1.442 1.442 0 0 0 .9.439l7.659.34a.842.842 0 0 0 .89-.791v-.059a7.035 7.035 0 0 0-.14-2.319 5.6 5.6 0 0 0-.84-.84 3.508 3.508 0 0 0 1.681-2.54l.289-2.27a19.6 19.6 0 0 1 2.67-1.53c.23 0 5.3.68 5.3.68-.14.48-1.07 3.78-1.07 4.2a.8.8 0 0 0 .49.83l5.15 2.48a.84.84 0 0 0 1.12-.4.83.83 0 0 0 .08-.3l.071-1.14a2.179 2.179 0 0 0 2.26-.24c.17-.16 2.051-1.76 2.31-2.88.221-.92.221-.92.921-1.07 0 0 3.209-.49 3.77-1.26.36-.5.77-1.011 1.22-1.561a15.515 15.515 0 0 0 2.69-4.169l1.41-3.8a4.752 4.752 0 0 1 1.07.11c.01.06.1 1.38.79 1.6l5.55 1.74a1.772 1.772 0 0 0 1.318-.262 2.9 2.9 0 0 1 .572-.308c.1.05 2.2.99 2.46 1.14-.01.07-.09.72-.09 1a2.343 2.343 0 0 0 .36 1.29c.07.11 4.6 5.341 4.78 5.72s.18.81-.82 1.81a.839.839 0 0 0-.013 1.188.847.847 0 0 0 .342.212l.57.18a6.435 6.435 0 0 1 2.49 1.15l.311.28a6.3 6.3 0 0 1 1.5 3l.2.64a2.077 2.077 0 0 0 .2.43 2.564 2.564 0 0 0 .621.68 3.111 3.111 0 0 0 3.42.3 15.427 15.427 0 0 1 1.209-1l1.191.409c-.981 1.39-2.131 3.081-1.071 4.24.14.15 1.02 1.31 1.7 1.31a1.794 1.794 0 0 0 1.09-.429 3.138 3.138 0 0 1 .57-.38 3.479 3.479 0 0 1 .561.14l2.62.76c.08.19.59 2.019.61 2.08s.03.079-.13.349a2.256 2.256 0 0 0-.389 1.43l.08.76a45.637 45.637 0 0 0-5 .8 6.471 6.471 0 0 1-1.523-.07c-.949-.119-1.876-.238-2.477.409l2.58 1.54c.6.36 2.079-.33 2.72-.491 1.419-.349 3.419-.359 4.419.911l2 2.55c.46.62 1.96.15 2.46.569s.771 2.09 1 2.7a5.461 5.461 0 0 1 .291 2.48l6.12-.6a.707.707 0 0 1 .672.252c.2.219.32.438.958.029.82-.531 1.33-.091.55.569-2.94 2.49-6.3 4.8-6.94 8.88-.77-.21-.951-.621-.82-1.39-.61.371-1.95.76-1.85 1.54l.469 3.85-4-.64c-1.28-.2-1.689.7-2.689 1.57-1.9 1.73-4.4-.66-6.14-1.75l1.41 3.561-4.09.3a6.154 6.154 0 0 0-2.73 1.139l1.3 1.95c.67-.78 1.94-2.55 3.26-2.21l2.39.621c.207.055.415-.267.621-.59s.407-.63.61-.591c1.77.351 2.659.39 3.9 1.63l2.26 2.16c.55.56.229.67-.17 1.37-1 1.74-1.42 1.8-3.32 2.53l-2.861 1.09c-.58.23-.64 1.17-.83 1.72-.26.74 2.74 2.07 2.42 2.831l-1.93 4.609c.58-.04 1.55-.5 2.06.1s1.49 1.34 1.6 2.139c.16 1.24.51 1.54-.49 2.24-.551.4-2.041.96-1.48 1.78 1.08-.72 1.11-1.13 1.87-.06l1.89 2.66c-.52-.071-2.831-.74-3.22-.47-.91.621-2.71 1.381-3.321 2.291-.28.42-.12 1.49-.33 1.719s-1.36.251-1.659.3c-1.03.18-3.021-.03-3.131 1.321l4.411-.85c.18-.03 1.379-.081 1.379-.351s-.21-1.84 0-1.9a8.078 8.078 0 0 0 2.26-.59c.45-.33.45-1.44 1.09-1.33a6.864 6.864 0 0 1 3.929 1.531l1.76 1.419c.311.291 0 1.36 0 1.771-.04.81.05 1.21-.449 1.81-.341.409-1.161 1.04-1.161 1.6.07 1.351.7 2.93-.52 3.67l-4.16 2.51a2.929 2.929 0 0 1-.45-2l-4.15.45c-1 .11-2.67 1.85-3.479 2.42l-1.951 1.37c-.439.291-.079 1.01 0 1.46.251 1.41 2.38 1.629 1.38 3.18a14.269 14.269 0 0 0-2.22-1.531l-2.27 2.51c1.12 1.051 1.41-.861 2.41-.861.68 0 2.291 1.73 2.82 2.13s1.91 1.221 2.14 1.81a3.859 3.859 0 0 1-.58 2.7l-2.79 2.66c-.521.49-2.78.49-3.281.58s-2.419.07-2.5.7c-.16 1.5-.66 1.86.84 2.13l4.07.72c.91.16 1.4-1.3 2.23-1.49l3.419-.81c.15-.03.13-1.081.15-1.33s1.44-.25 1.709-.25c.75-.06.81 1.77 1.15 2.36s1.6 2.45 2.23 2.659a17.236 17.236 0 0 1 3 1.891 7.789 7.789 0 0 0 3.09.66c1.71.25 1.99 4.43 2.3 5.929a17.611 17.611 0 0 0 1 3.18c.16.43.68.72.779 1a5.809 5.809 0 0 1-.19 1.85l-3.58-1c-.14-.05-1.06-.42-1.14-.22a7.559 7.559 0 0 0-.569 1.57l3.61 1.82c.2.1.07 1.58.07 1.83.01.589.5.709.94 1l-2.291 2.4c-.109.11-1.109-.59-1.26-.68-.75-.45-.79-.42-1-1.24-.15-.59-2.22-1.21-2.69-.88-1.06.73-1.72-.3-2.72-1 .851-.861 1.651-1 .851-2l-2.551-3.161c.741-.569 1.5-1.678 2.381-1.178 1.409.76 1.291.9 2.409-.24l-3.329-1.861c-.5-.291-.97 1.869-1.78 1.869-.49-.02-.99-.18-1.2.24s-.74 1.1-.74 1.58c-.01 1.67.24 2.07-1.07 3-.161.14-.88.861-1.161.69s-1.05-.93-1.28-.7l-3 3c-.619.64-1.03 1.621-1.88 1.74a4.245 4.245 0 0 0-3.169 1.7.7.7 0 0 0-.7-.27l-2 .41a.689.689 0 0 0-.44.28l-2.75 3.85Zm57.24-5.981c-.139-1.3-.08-1.179-1.2-2a29.468 29.468 0 0 0-6-3.5c-.021-.01-2.67 1.2-2.85 1.27-1 .321-1.54.88-2.51.321s-2.35-.94-2.67-2.051c-.19-.64-.291-.96-.74-1.2s-.461-.19-.53-.64l-1.18-7.149c.94-.821.84 1.06 1.57 1.13.99.07 1.04.3 1.69 1.07l2.06 2.46c.16.191-.33.68-.23.91s.6.49.8.651c.99-1.26 2.03-1.33 3.581-1.75-.1-.831-2.11-.44-2.771-.44.24-.2.42-.479.65-.69l-1.1-.22c.35-1.29.21-1.35 1.521-1.5.839-.06 2.7.21 2.34-1.06-1.12.06-3.06.59-4.06.17l-4.33-1.75 1.52-1.081-1.57-.3c.26-.1 1.48-.43 1.41-.689-.191-.771-.05-1-.81-1l-3.31.139c-.92.04-2.39.43-3.19-.09l-3.19-2.07c1.67-.69 2.47-1.11 4.239-.83l-.319-1.221c-.72.191-4.52 1.15-4.861.3-.46-1.169-.59-1.139.221-2.07a4.8 4.8 0 0 1 4.46-2.77 7.8 7.8 0 0 1 2-.55 7.522 7.522 0 0 1 2.57.089l2.52 1.3a15.318 15.318 0 0 1 3.77 3c.89.91 2.01 2.95 3.28 3.18a14.26 14.26 0 0 1 5 1.86c.83.45.48 1.151 1.09 1.66l2.1 1.771c.621.52 1 2.04 1.34 2.749l1.7 3.561a9.746 9.746 0 0 1 .36 3.1c.11 1.28.67 1.5 1.63 2.351.43.389-.4 2.209-1 2.329-1.26.23-2.2.24-3 1.1-.486.522-1.042 1.174-1.451 1.174-.265.001-.468-.271-.554-1.024Zm-118.27-62.613-2.109-4.85c-1.36-3.139-2.84-6.04-3.471-9.4.42-.9.3-1.29 1.3-1.19.52.05 2.55-.05 2.89.29s.1 2.49.1 3a6.319 6.319 0 0 0 .72 2.18c.2-.58.329-1.57.91-1.58s1.22-.381 1.49.31 1.659 3.69 1.27 4.24c-1 1.48-.5 2.06 0 3.82.349 1.2 1.4 3.2.9 4.47-.85-.228-3.65-.48-4-1.29Z" />
  <path id="Fyn" d="M196.518 386.394c-.21-1 .6-1.73.21-2.63a8.71 8.71 0 0 1-1-3.6c-.04-1.1-.87-1.91-1.45-2.77s-5.33-2.41-3.73-4.22c.99 1.23 1.96 1.311 3.37 1.93.661.29.9-.84 1.22-1.42a1.059 1.059 0 0 1 1.2-.71c-.65-1.429-.07-2.629.281-4.139.09-.35 1.319-.26 1.319 0-.01.709-.05 1 .81 1a.749.749 0 0 1 .284-1.02.735.735 0 0 1 .106-.05c.35 1.03.64.67 1.41.24-1.17-1.021-1.561-1.921-.561-3.2-.549-.327-.98.046-1.358.419-.339.335-.634.67-.932.5a1.4 1.4 0 0 1-.834-1.8 1.536 1.536 0 0 1 .094-.2c.45-.74 1.32-1.65 1.32-2.54-.02-1.1.639-.53 1.3-1.239s.75-1.74 1.419-2.4l2.429-2.4c.411-.4.571-.24 1.161-.11.38.08.86-.23 1.22-.36a6.073 6.073 0 0 0 1.49-2c.43-.8.43-2.531 1.18-3.1s.81-1.29 1.16-2.139a45.821 45.821 0 0 0 2.26-6.83 7.169 7.169 0 0 1 1.38-3 6.745 6.745 0 0 0 .73-3c.179-1.22 3.13-5.249 3.68-2.54.84 4.12-1.05 8.921-2.321 12.84-.74 2.29-1.229 4.63-1.929 6.91a25.037 25.037 0 0 1-3.311 6.37c-1.209 1.94-1.42 3.859-2 5.939s-1.31 4.151-2 6.2c-1.39 4.14-2.32 8.38-3.93 12.44-.79 1.98-1.17 4.81-3.68 4.81h-.023c-.909-.001-1.768-1.189-1.974-2.181Zm-20.949-11.18c-.611-.44-1.851-.62-2.3-1.22l-1.83-2.429a17.685 17.685 0 0 0-4.41-4.531 5.094 5.094 0 0 1-1.56-1.63c-.46-.669-1.61-1.8-1.76-2.6-.219-1.121.4-1.39-.36-2.321s-1.47-1.859-2.18-2.86c.69-.99 3.091 2.31 3.69 2.92.44.45 1.47.54 2.07.73s1.021.851 1.45 1.29c1.291 1.331 2.58 2.65 3.851 4 1.089 1.169 1.629 1.169 2.86.17.24-.16-.41-1.81-.511-2.16 1.64-.03 1.74-.27 2.191 1.31.09.33-.571.63-.451.92l.811 1.9a9.42 9.42 0 0 0 2.07 1.941c1.29-1.251 1.15-1.15 2.54 0 .67-.82-1.55-2.59-2.111-3.24 1.781-.511 3.621 2.21 4.881 3.35.7.63.27 1.27.77 1.92a.469.469 0 0 0 .541.176c.215-.041.384-.082.428.465.01.36-.959.19-1.28.19a17.255 17.255 0 0 0-5.77 1.36c-.45.179-.4 0-.52.619s-.519.8-1 1.209a.476.476 0 0 1-.309.121c-.61 0-1.283-1.226-1.8-1.6Zm12.5-15.27c-.771-.13-.92-.43-.91-1.22s-.771-1.42-1.38-1.9c-.44-.34-.32-1.4-.32-1.92 0-.19 1.189-.68 1.4-1l-2.11.27-.2-1.76c.469-.471.669-.9 1.379-.911s.92-.49 1.5-.87c.381-.25 1.28-.411 1.461-.84a2.089 2.089 0 0 1 .91-1.11c.721-.539 2.1-2.04 2.951-2.32 2.04-.67.939 1.74 1.819 2.14 2.02.92-.51 4.91-1.51 6.15-.77.96 2.19 1.6 2.531 1.43s.709-1.47.879-1.82c.25-.51 1.15-.14 1.661-.081-.1.551-.04 2.76-.35 3.061a1.576 1.576 0 0 1-1.2.193 1.689 1.689 0 0 0-1.416.287l-2.52 2.721c-.19.21-2.519-.92-2.89-1.041-.37 1.35-.89 1.24-2.23 1.48Zm-6.02-11.74c-.681-.89-3.41-.139-4.47-.059a2.8 2.8 0 0 1-2.69-2.131c-.03-.429-.8-1.209-1.28-1.089s-.69 1.629-1.09 1.739-2.95-.45-2.95-.74c-.08-1.36-2.009-1.22-2.54-2.27-.159-.31.27-.8-.11-1l-2-1c-1.521-.77-1.691-.96-3.31-.43.5.741 1.16 1.17.789 2a7.341 7.341 0 0 0-.75 2.671c-.49-.341-1.08-.54-1.18-1.141-.2-1.1.051-1.45-1.06-1.45-.34 0-2.14.31-2.34 0-.48-.76-.561-1.379-1.481-1.24-1.47.221-2.93 1.6-4.2 1.16s.3-3.189.629-4c1.581.791 1.731.051 2.58-1.34.98 1.069 3.21-.52 4.11-1.11-1.31-1.1-1.1-3.25-3.169-3.25.19-1.839-.471-2.96-1.2-4.659-.99.59-1.43.819-1.89 1.82-.29.661-1.72 0-2.29-.11s-2.51-.17-2.911-.59a8.156 8.156 0 0 1-.24-1.38c-.138-.579-.59-.559-1.139-.77a2.686 2.686 0 0 1-1.79-1.72c-.38-.681-1.66-.971-2.382-1.081-1.469-.24-1.529-.159-2.149-1.509-.291-.681-1.69-1.311-2.291-1.76 1-1.251.841-1.17-.08-2.48-.36-.49.321-1.73.27-2.49-.219-2.63-.129-4.909-1.22-7.3a1.765 1.765 0 0 1 .814.16c.406.15.778.3 1.007-.02l-1.541-1.271c-.531-.44.42-1.24-.75-1.359-.169.78 0 1.05-.8 1a5.562 5.562 0 0 1-1.72-.139 16.828 16.828 0 0 0-3.85-1.311c.27-.97.21-1.8 1.271-1.8.669-.01 2.289-.01 2.76-.55 1.66-1.91-2.33-3.64-3.48-4.26.46-.429.59-.76 1.121-.429.831.53.871.789 1.62.11 1.3-1.16-1.98-1.39-1.7-2.65l1.37.25c.24-1-.87-.82-1-1.611s.46-.93-.45-1.5l-.49 1-1.55-1.37c1.72.23 1.3-1.169 0-1.169-.42 0-.95.53-1.3.5s-1.59-.9-1.59-1.28c-.11-1.81-.49-1.79-2.11-1.929-.371-.031-.44-.73-.771-.871a15.906 15.906 0 0 1-1.94-.87c-.219-.13.21-1.29.27-1.58s1.03-.35 1.27-.29c.92.23 1.97 1.7 2.611 1.8s2.13-1.24 2.449-1.791c.54-.919.07-2.33-.18-3.28.56.091 1.26.43 1.9.091s1.629-1.23 2.35-1.23a3.261 3.261 0 0 1 2.74.67c.54.389.17 1.5.17 2.18.06 1.209-.32 1.71.82 2.21a6.728 6.728 0 0 0 2.65.26c.56 0 1.93.3 2.43 0l2.67-1.58a37.671 37.671 0 0 0 4-2.681c.3-.24 1.469-1.77 1.669-1.77.9-.159 1.98-.03 2.24-.84.18-.619 2.05-1.31 2.54-1.62 1.121-.709.93-.519 2.121-.46a6.823 6.823 0 0 0 2.309-.619l1.65-.6c.214-.087.305-.743.227-.778.934.207 1.135-.093 1.833-.721.3-.29 1.14-.23 1.52-.29 1.53-.23 3.16-.879 4.53-.15-.959.53-.93 1.22-1.169 2.22 1.14.09 1.94.48 2.65-.46.4-.53-.12-.81-.411-1.16a3.374 3.374 0 0 1-.24-1.711c-.1-.97.51-2.07 1.68-1.35.34.17.42.89.7 1.17a5.244 5.244 0 0 0 1.09.619 71.042 71.042 0 0 1 6.46 4c1.62 1.169 3.74 2.65 4.74 4.409-.22.051-.42.281-.64.281.22.07.38.31.6.388a8.844 8.844 0 0 1-.92 1.062c-.66.688-.88.62-.26 1.35.79.93.64 2.34 2.06 2.34-.091.26-.22 1.39-.491 1.52s-1.439-.439-1.75-.54c.88 1-.54 1.18-1.12 1.08s-.72-.31-.87.26c-.221.811-.44.52-.831 1.1-1.1 1.66-.82 3.3-1.26 5.1 1.58.08 1.57-.05 2.51-1.32.741.891.631 1.32 1.631.571s1.46-.68 1-1.83c-.24-.55-1.17-1.9 0-2.071.309-.05.82.641 1.14.72a3.681 3.681 0 0 0 2.06-.349 2.257 2.257 0 0 1 .961-.033 1.719 1.719 0 0 0 1.119-.116c1.08-.78 1.359-1.23 2.659-1s1.32-.14 2.2-1.14a2.733 2.733 0 0 0-.6-2.12 17.332 17.332 0 0 0-2.36-1.09c-.25-.08-1.08-.23-1.08-.46s-.22-1.02 0-1.129c1.25-.63 1.33-.99 2.25.1.78.92 1.27 1.25 2.2.39.26-.29-1.209-1.12-1-1.75.3-1.03-.24-1.68-.7-2.68a6 6 0 0 1-.47-5c.75.549.27 1.359.35 2.13a4.06 4.06 0 0 0 1.25 2.55c1.14-.68-.41-1.7.14-2.1.85-.61-.01-1.94-.28-2.85-.32-1.081-.411-1.07-1.41-1.57-.86-.41-1.621-.92-.261-1.25 1.58-.38 2.65 1.07 3.34 2.419l3.17 6.18c.29.58 1.2.741 1.43 1.451s-.46 1.6 0 2.28c1.07 1.609 2.58 3.21 3 5.12.22.99.14 1.372-1.14 1.411s-1.77-.08-2.769.609a10.815 10.815 0 0 0-2.469 1.921c-.639.75-1.81-.11-2.2 1a18.228 18.228 0 0 0-2.368-1.549c-1.26-.681-1.25-.53-2.51.17-.31.17-1.909 1.12-1.719 1.49l1.479 2.889c.561-.34 1-.38 1-1.05.031-.959.051-2.06.08-2.88s3.98 1.34 4.1 1.41c.263.145.565-.057.887-.26a1.334 1.334 0 0 1 .863-.3c.641.1 1.541.04 2 .53 1.109 1.18 2.369 2.31 3.37 3.58 1.86 2.34 4.23 4.85 5.4 7.65a37.025 37.025 0 0 1 1.28 4.92c.3 1.07 2.219 2.39 3 3.2l-2 .8c.071-1.859-1.819-2.06-3.22-2.63-.127 1.068-.792.972-1.491.875-.57-.078-1.164-.157-1.509.4.216.012.559-.007.942-.026a4.468 4.468 0 0 1 2.128.177c.871.66-.02 2 .2 2.729.6 1.95 1.84 4.311 1.67 6.37-.19 2.35-.5 4.651-.851 7-.32 2.16-1.36 4.151-1.649 6.35-.071.571 0 2.341-.4 2.571-1.54.9-1.439 1-1.54 2.789-.121 2.171-3.74 2.58-5.31 2.58-.93.02-1.99.65-2.93.55a7.086 7.086 0 0 1-1.57-.61c-.31-.07-1.25.75-1.521.93-1.76 1.181-3.959 1.58-5.76 2.69a2.7 2.7 0 0 1-3.628-.86Zm-22-71.99" />
  <path id="Hovedstaden" d="M339.518 281.004c-.2-.18-.36-1.5-.72-1.5a15.134 15.134 0 0 1-1.65 0c-1.5-.02-1.42-4.189-1.42-5.19 2.121-3.36 6.28-5.52 7-9.67.24-1.389.73-1.18 1.41-.09s1.52 1.59.63 2.591c-.42.439 1.951 4.719 2.51 5.02s.44 5.28.16 5.45a37.879 37.879 0 0 0-5.409 4 .387.387 0 0 1-.233.051 6.827 6.827 0 0 1-2.278-.662Zm-25.11.11a1.618 1.618 0 0 1-.74-1 3.347 3.347 0 0 1 .17-2.07c.1-.34.18-.36.56-.46a2 2 0 0 0 1.3-.851 1.718 1.718 0 0 0 .131-1.66 10.317 10.317 0 0 1-.18-1.11c.061.015.123.027.185.036-.042-.007-.083-.016-.125-.026-.07-.8-.07-1.04.93-2.68.839-1.419-.52-3.39-1.721-5.14a11.839 11.839 0 0 1-1-1.54c.14-.209.75-.63 2.75-1.4l.35-.14c1.56.38 4.251 1.019 4.8 1.07a2.928 2.928 0 0 0 2-1 5.919 5.919 0 0 1 .5-.409 1 1 0 0 0 .43-.69c.1-.629-.361-1.24-.9-1.94a4.8 4.8 0 0 1-.67-1 7.173 7.173 0 0 1 .879-3.26 2.359 2.359 0 0 1 1.111.17 2.986 2.986 0 0 0 .84.18h.219a14.229 14.229 0 0 0 3-.21c1.26-.26 1.33-1.73 1.39-2.73a5.513 5.513 0 0 1 .11-1 8.217 8.217 0 0 1 1.79.17 5.663 5.663 0 0 0 2.42.1c.85-.28 1.06-1.21 1.219-1.95.1-.449.23-1.05.44-1.129a34.349 34.349 0 0 1 4.23-.851 22.843 22.843 0 0 0 1.24 4.361c.61 1.639-.281 3.81-.619 5.461a5.666 5.666 0 0 1-.621 1.98c-.79 1.342-.094.968.569.6.379-.213.748-.427.822-.317.31.46-.11 2.11-.37 2.62l-1.95 3.811a13.766 13.766 0 0 1-1.661 2.4c-.32.39-2.07 2.13-2.07 2.54-.06-.86-.56-.72-1-.129a4.982 4.982 0 0 0-.55 2.41 1.354 1.354 0 0 1-1.362 1.342h-.038c-1.21.039-1.04.009-1.691-.691-1.51-1.64-2.47-1.32-4.4-.9-1.82.39-2.31.24-3 1.9a2.515 2.515 0 0 1-.8.869l-.007-.01-4.3 3.291a3.259 3.259 0 0 0-4 .869.55.55 0 0 1-.61.12Zm5.861-7.14a5.962 5.962 0 0 1 2.48 2.1 5.789 5.789 0 0 0-2.421-2.087c-.62-.16-1.162-.379-1.692-.47.509.093 1.034.3 1.633.456Z" />
  <path id="Nordsjaelland" d="m317.058 261.694-3.24-2.43c.08-.331.7-1.551.6-2a1.238 1.238 0 0 0-.2-.48 2.653 2.653 0 0 0-2.1-.71h-.339a2 2 0 0 0-.36.06c-1.43.42-2.45.08-3.651-1.2l-.4-.46c-.57-.69-2.4-3.09-4.49-2.28l-.6-.43c1.22-.93.31-2.06-.11-3.24-.48-1.36.35-1.79-.77-2.92-.28-.29-1.351-2.5-.6-2.71a.753.753 0 0 1 .359.024c.18.043.343.087.49-.1a2.477 2.477 0 0 0 .58-1.35c.07-1.49-1.06-2.33-1.46-3.65-.45-1.5.161-2.5-.649-3.89-.671-1.15-1.44-2.28-2.08-3.45-.281-.51-.39-1.31-.691-1.62s-1.489.869-1.919 1a7 7 0 0 0-2.25 1c-.75.54-1.58.22-2.37.54-1.07.431-2.37 1.3-3.551.91s-.78-.57-1.53-1.39c-.869-.98-.38-1.659.13-2.659.6-1.17 2.73-1.92 3.84-2.72a21.452 21.452 0 0 1 2.791-1.1l3.9-2c.67-.34 1.989-.319 2.369-.86a21.459 21.459 0 0 1 5.63-5c1.42-1.009 2.829-2 4.2-3.069a11.851 11.851 0 0 1 5-2.23c1.679-.46 4.11-2 5.79-1.58a23.2 23.2 0 0 1 6 2.281 15.536 15.536 0 0 0 5.4 2 21.489 21.489 0 0 0 3.46 0c1.14.041 2.331.88 3.331 1.37 1.61.78 2.879 2.51 4.51 3.42.49.27 2.5 1.07 2.48 1.969a3.531 3.531 0 0 1-.6 1.64c-.47.66-.628.19-1.209 0 .581.19-1.09 2.55-1.419 2.74-1.03.6-1.71.86-2.129 2a25.986 25.986 0 0 1-1.451 3.26c-.3.57-1.229 1.73-1.229 2.4.01.91-.89 1.95-.63 2.91s.66 1.89 1 2.82a51.044 51.044 0 0 0 2.071 4.75 14.156 14.156 0 0 1 1.67 4 31.489 31.489 0 0 0-4.561.94c-.959.369-1.19 1.43-1.36 2.2a4.991 4.991 0 0 1-.229.851 6.792 6.792 0 0 1-1.7-.16c-1.32-.22-2.469-.41-3.09.21a3 3 0 0 0-.55 2 4.021 4.021 0 0 1-.2 1.35 13.193 13.193 0 0 1-2.67.17 5.4 5.4 0 0 0-.641-.111 3.34 3.34 0 0 0-2-.16c-1.321.45-2.092 4-1.871 5a13.858 13.858 0 0 0 1.45 2.32 8.462 8.462 0 0 1-1.21.9c-.363-.077-2.993-.587-4.942-1.076Zm-21.32-3.481v.331a19.633 19.633 0 0 0-3.67-1.72 1.945 1.945 0 0 0-1.39.62c-.99.989-4.08.71-4.29.579a.907.907 0 0 1-.21-.2c-.41-.62.07-1.05-.58-1.621-.33-.33.93-2.52 1-3.329a5.48 5.48 0 0 1 .16-1.73c.231-.37 1.2-.46 1.12-1-.149-.99-.04-1.14.77-1.67.38-.25 1.39-1.09 1.881-.67 1.269 1.09 2.129.01 2.46-1.19.19-.67 1.059-2.961.72-3.671-.63-1.32-2.031-2.56-2.361-4.07s-1.679-2.379-1.8-4c-.141-1.85 1.95-1.51 2.949-1.159s2.39.74 3 1.74c.149.239 1.43.311 1.7.361a1.868 1.868 0 0 1 1.28.8c.52.57.63.51.15 1.08a8.5 8.5 0 0 0-1.281 1.79c-.43.93-1.33 3.52.57 3.49s1.42 1.13 1.781 2.6c.09.37.45 3.43.45 3.43.541.179-.15 1.05 0 1.35.01 0 .925 1.569 1.168 1.061a10.465 10.465 0 0 1-.627 1.36c-.08.17.5 1.109.7 1.109-.459.01-.029 2.54.26 2.83.56.55.12 1.93-.21 2.66-.041.1-.2.067-.4.033a.993.993 0 0 0-.849.137c-.479.4-.83.84-1.12 0l-.769 1.39c-1.222-1.061-.813-2.305-2.562-2.721Zm5.6-6.86a.375.375 0 0 1-.023.061Z" />
  <path id="Sjaelland" d="M290.996 407.663c-.15-1.749-.13-2.9-1-4.38l-3.16-5.389c-.34-.621.66-4.07 1-4.771a13.775 13.775 0 0 1 1.59-2.059c.74-1 .96-.941.36-2-.2-.38-2-.67-2-1a10.811 10.811 0 0 0 .38-2.76 10.136 10.136 0 0 0-2.25-4.17c-1.41-1.23-2.9-2.309-4.41-3.409a3.21 3.21 0 0 0 1.23-2.451c.112-.709-.72-1.189-.939-2s-1.34-.879-2.091-1.139l-1.339-.48c-.28-.1.08-.909-.1-1.331s.12-1.33.18-1.659-.321-.841-.46-1.132a3.066 3.066 0 0 1-.12-2.638c1.41-2.352-1.7-2.341-3.2-2.5a9.044 9.044 0 0 0 1-2.13l.779.8c.37-.62.65-.85.37-1.51-.14-.34 1.51-.85 1.86-1 1.07-.47 1.94 1.87 2.5 2.71.1.16.5 1.16.76 1s1.67-.84 1.67-1.1c-.081-.72-.141-1.371-.22-2.15s-.58-.47-1.32-.47c.79-1.58.89-1.27 2.609-.909.271.06-.219 1.15.271 1.28a7.2 7.2 0 0 1 1.9 1.19c.92.64.829 1.41 1.339 2.409.641 1.15 1.431 1.28 2.64 1.78l.67-3a9.45 9.45 0 0 0 3.191.361c1.13-.01 1.07 2.07 1.13 2.709.1 1.061-.25 2.11.86 2.34a24.361 24.361 0 0 0 3.65.729 22.321 22.321 0 0 1 3 .231c1.439.249 2.15.06 2.81 1.339a15.738 15.738 0 0 0 1.6 2.93c.6.72 1.83 1.98 1.71 3.05a2.81 2.81 0 0 1-.78 1.06c-.131 0-1.5.02-1.361.23.74 1.12-1.109 2.47-1.75 2.95a19.714 19.714 0 0 0-2.419 1.419l-2.64 3.221c-1.25 1.539-1.17 3.6-2.381 5.129l-2.429 3.06c-.56.71-.6 2.351-.79 3.221-.53 2.37.07 4.549.15 7s.08 4.929.08 7.39c-.73-.291-4.13-1.391-4.13-2.001Zm-31.57-2.27a21.088 21.088 0 0 0-3.49-2c-1.87-.859-3.09-3.57-5.17-4.13a11.266 11.266 0 0 1-5.33-3.36c-.59-.829-1.21-2.2-2.09-2.739a30.3 30.3 0 0 0-2.861-1.62c-2.07-1-3.609-2.51-5.93-3a38.926 38.926 0 0 1-6.88-2c-.89-.33-1.83-.7-2.68-1s-2.78-.541-3.34-1.3a20.45 20.45 0 0 1-1.95-3.83c-.36-.9-1.6-1.53-2-2.479-.25-.43-.541-2.481 0-3s2.12-1.43 2.209 0c-3.479.45-.839 3.92.921 4.86.34.18 1.3-.53 1.619-.7.521-.27-.08-.96-.34-1.51s-.951-.46-1.55-.55c-.84-.14-.66-.29-.66-1.14a26.672 26.672 0 0 1 3 1.16c.29.141 1.16.38 1.29.72s.28 1.27.56 1.49c1.059.84 1.849 0 2.5-.86s-1.55-1.09-.111-2.09c.641.88.7 1.65 1.7 1 .78-.479.34-1.27 1-1.48.39-.13 2.2-.36 2.2.24.02 1.15.08 1.039 1.179 1.36-.039-.3 0-1.48-.25-1.61l-2-1a3.306 3.306 0 0 0-1.561-.12c-.79.01-.74.24-1.119.95-.53-.3-1.061-.649-1.62-.92.66.31.07-1.621.07-1.621a5.6 5.6 0 0 0-1-1.5c-.34-.51.33-.9-.34-1.311a1.335 1.335 0 0 0-1.67-.149l.05-1.28c-1.9.129-1.28-.92-.85-2.39.25-.84.76-2.281 1.541-2.69a4.427 4.427 0 0 0 1.71-1.4c.27-.34.82-1.1 1.21-1.24 1.24-.491 1.81.72 2.861 1 .13-.51-1.611-2.35.219-1.61a3.31 3.31 0 0 0 0-.831c1.17.781 2 .22 3.23-.3a4.656 4.656 0 0 1 3-.509c1.07.11 2.709-.031 3.67.449s2.659.93 3.33 1.78a6.992 6.992 0 0 0 2.71 2.53c1.72.79 1.91.551 1.84 2.451-.069 2.09 3.621 3.389 5.24 3.868-1.12.571-.24.721-.24 1.57a6.068 6.068 0 0 1 .929-.878 4.255 4.255 0 0 1 1.37.159c.469.061 1 1.4 1 1.861-.08 1.44.19 1.11 1.57 1.28.39.05.189 1.06.46 1.19a2.8 2.8 0 0 0 1 .12 7.922 7.922 0 0 0 1.152-.058 4.462 4.462 0 0 1 1.848.058c.23.1.34.709.62.709l1.51-.089c1.14-.061 1.439.439 2.29 1.24.709.628 1.38-.081.709-.521-1.23-.8-4.33-2.03-4.23-3.611 0-.33 1.8-1.179 2-1a4.389 4.389 0 0 0 2 1.111c.279.093.516-.236.786-.562s.6-.681 1.044-.55c.87.26 1.161-.2 1-1.108-.261-1.8-1.11-3.03-1-4.8 1.17.129 1.411.111 2.171.909a7.8 7.8 0 0 0 1.74 1.16c1.25.729 2.509 1.669 4 1.61-.24.959-.649 2.341.18 3.13a12.1 12.1 0 0 0 3 2c.87.46.13 1.77-.05 2.68-.08.5 1.45 1.48 1.92 1.84.889.68 1.73 1.37 2.561 2.121a4.005 4.005 0 0 1 1.339 2.7c.24 1.03.47 2.1.7 3.1.17.79-2.21 1.239-2.65 1.34.07-1.63-2.04-.41-.63.79l-.79.6c.46.53 1.061 1.6 1.7 1.89.97.45 1.86.43 1.68 1.6-.056.451-.259.423-.484.4a.462.462 0 0 0-.517.173c-.169.22-.01.98 0 1.361s-1.31 1.82-1.569 1.669a5.057 5.057 0 0 1 .76.76c-.441.42-.79.91-1.33.8s-.8-.269-1 .341a4.9 4.9 0 0 0-2.68-.76 10.966 10.966 0 0 1-3.13-.21c.1-.2.89-2.4.25-2.4-1.031.02-1.18 1.67-1.18 2.31-1.3.2-.4-.79-1.3-1.12a6.124 6.124 0 0 0-2.16-.33c.169 1.38.24 2.12-1.52 2.12-.02 0 .39-1.389.39-1.53a6.391 6.391 0 0 1-4.8-1l.09 1.15c-.579-.019-1.75-.4-1.51.41-.77.19-1.13.17-1.61.83-.63.87-.721 1-1.821 1.17a3.837 3.837 0 0 0-1.93.69c-.36.25-1.3 1.07-1.61 1.07s-1.569.64-1.469.9c.28.76 1.089.89 1.77 1.27a8 8 0 0 0 4.53 1.25s-.58 1.17-1.13 1.17a4.02 4.02 0 0 1-1.794-.672Zm48.15-36.72a8.957 8.957 0 0 1-.92-1.77c.61-.181 1.08 0 1.139.679.17-.15.87-.57.87-.78a.818.818 0 0 0-.253-.6.829.829 0 0 0-.606-.233 28.527 28.527 0 0 1-3.18.38c-.3-.94.84-.85 1.469-1-.5-.94-.909-1.411-.5-2.34s1.14-1.21 2-1.76c-1.01-.99-1.34-1.17-1.34-2.56.42-.27 2.11-1.71 2.51-1.49 1.6.859 1.22-.111.84-1.42 1.35-.13 1.74-.571 2.351.781s.879.79 2.22.269c.419-.1 2.73-1.27 3-1 1.07 1.061.79 1.07.069 2.39 1.14.54 2.16-.721 3-1.32a8.449 8.449 0 0 1 3.092-1.21c-.132-.99-.94-.449-1.581-.27-1.031.29-1.021.169-1.83-.56-.73.87-1.17 1.31-1.87.069-.93-1.6-1.03-1.519.07-3 .781-1.061.1-1.35-.78-2.29-.24-.26-2.469-1.79-2.53-1.37.22-1.49.521-1.63 1.72-2.56.149-.119 1.18.291 1.32.44.349.35.469 1.42.629 1.89.26.781 1.93 1.31 2.62 1.7a3.624 3.624 0 0 0 1.962.254 7.488 7.488 0 0 1 1.038 0c2.04.181 4.25 1.04 6.25.841a5.33 5.33 0 0 1 3 .13 16.156 16.156 0 0 1 3.121 1.74c.58.43.8 1.93 1.081 2.609.418.851 1.37 1.63 1.1 2.631-.4 1.4-.36 2.02-1.61 2.719a4 4 0 0 1-2.73.15c-2.812-1.089-5.411-2.24-8.411-2.24-2.86-.05-4.82 1.65-7.1 3.121a11.88 11.88 0 0 0-3.15 3c-.78.959-.94 2.5-2 3.08-.429.24-1.649 1.419-2.12 1.35a11.558 11.558 0 0 0-2.38.13c-.324.02-.547.05-.721.05-.339 0-.493-.113-.856-.63Zm-57.88-6.07c-.85-.54-.82-1.71-1.04-2.74.92-.41 1.871-1.25 2.42-.25.191.36.651 1.05 1.061.27.15-.27-.271-1.35-.33-1.66-.1-.469.716-.31 1.4-.151a2.981 2.981 0 0 0 .869.151c1.42-.68 1.56.18 2.56 1.32.84.959-1.369 1.35-1.849 1.419-1.081.211-1.771 1.26-2.531 2-.421.406-.706.568-.969.568-.423 0-.791-.42-1.591-.926Zm11.1-5.06c-1.21-.56-1.68-.51-1.88-1.84.85-.53 1.53-1.27 2.53-1.081 1.45.28 1.4.35 2 1.661s.29 1.31-.639 2.459c-.292.35-.18.99-.351 1.21s-.9.31-1.17.41c-.068-.466-.09-2.639-.49-2.819Zm33.52-1.43a43 43 0 0 0-3-3.17c-.848-.776-.873-.156-.946.463-.059.5-.148 1-.724.768a12.316 12.316 0 0 1-3.13-2.151c-.75-.66-2.47-.94-3-1.66-1.68-2.27-4.69-3.35-7.15-4.35a33.785 33.785 0 0 0-5.62-1.57c-.7-.189-3.859-.64-3.42-2-.03.1 13.251 4.19 14.09 4.52s2 1.26 3 1.19c.851-.06-.879-1.79-1-1.93-.68-.759-.62-1.66-1.54-2.259a6.993 6.993 0 0 1-1.8-1.2c.08.149-.19 1.15-.51 1.15-.14 0-1.65.15-1.65 0a9.117 9.117 0 0 0-.79-1.87c.321-.17 1.291.38 1.65.53s.71-.82.449-1a25.087 25.087 0 0 0-2.88-1.24c-.33-.17-.44-1.88-.529-2.28-.291-1.27 1.189-.96.81-.111-.141.31 1.25.4 1.4.4.9.07.621-.091 1-.84.9-1.77 1.89-.29 3.459-.29 1.2-.02.041-2.64-.659-2.861s-.8-.92-1.06.08c-.189.751-.97.541-1.51.311.8-1.051-.228-1.04-1.412-1.031-1.162.01-2.477.02-2.378-.97.11-1.16.72-1.38 1.63-2.16s1.27-1.26-.33-1.17a5.209 5.209 0 0 1 .67-1.8c-.859-.271-1.56-1.17-2.459-1.27a8.444 8.444 0 0 0-2.18.81c-.68.369-2.051 3.27-2 3.27a15.436 15.436 0 0 1-5-.829 14.622 14.622 0 0 1 1.36-4.561 12.979 12.979 0 0 0 1.5-3.629 16.054 16.054 0 0 1 .9-2.47 22.475 22.475 0 0 1 5.719-6 22.975 22.975 0 0 0 3.77-3.13 13.215 13.215 0 0 1 2.791-2.29 3 3 0 0 1 2.12.6 5.126 5.126 0 0 0 2 .75 10.207 10.207 0 0 0 7.26-1.56 39.675 39.675 0 0 1 5.61-3.27 19.052 19.052 0 0 0 2.661-1.5 1.624 1.624 0 0 0 .67-1.311c0-1.15-1.16-2.209-2.42-3.21l-.271-.21c-1.17-.91-1.58-1.359-1.32-2.129s2.79-2.021 4-2.62a15.956 15.956 0 0 0 1.72-.92 48.07 48.07 0 0 1 7.12-3 5.375 5.375 0 0 1 1.57-.271c-.36 1-.67 2-1 3-.44 1.32-.67 2.24.089 3.32s1.04 3.25 2.31 3.62a17.073 17.073 0 0 1 2.77 1.19c.9.44 2.479 1.67 3.48 1.67a9.421 9.421 0 0 1 7.871 3.85c1.319 1.67 3.559 4.56 2.669 6.75-.341.84-.551 1.49.2 2.1 1.01.821.041 1.68-.75 2.6-.85 1.14-1.55 2.381-2.479 3.471a1.9 1.9 0 0 1-2.377.62 3.531 3.531 0 0 0-1.624-.12 14.19 14.19 0 0 0-.118 1.771c-.24.86-1.771.46-2.41.38a13.009 13.009 0 0 0-4.54-.25c-1.341.31-2.661 1.35-4 1.85a9.35 9.35 0 0 0-3.13 1.469c-.76.68-1.61 2.37-2.41 2.78-1.089.551-2.58.99-2.63 2.331a11.013 11.013 0 0 0 .15 2.281c.08.369 0 3.379-1 2.229-1.07-1.32 0-2.26 0-3.67a5.011 5.011 0 0 0-.3-2.29 14.688 14.688 0 0 0-1.81.871c-1 .49-2 1.061-3 1.641-.16.09-1.25.52-1.25.82s.03 1.83.35 1.94c.62.22 1.12.12 1.49.71a13.437 13.437 0 0 0 .92 1.849c1.031 1.16.66-.54 1.34-.64a2.857 2.857 0 0 1 2.35.341c.77.43.951.53 1.27-.271s.73-.23 1.43-.1c1.32.22 3.68.091 3.8 2 .111 1.73-1.11 6.8-3.52 4.28-.69-.72-1.42-2.251-2.42-1.15-.62.7 1.91 1.66 2.5 1.929-1.68.89-.27.65-.36 2.09-.06.881-.22.86.64 1.291.64.3.141 1.06 0 1.57-.189.7.771.84 1.231 1.18s.679 1.38.87 1.89c.4 1.051.42 2.54-.94 2.42a4 4 0 0 0-3.39.88c-.931.89-2.16 1.23-3.091 2.07a3.593 3.593 0 0 1-2.472.854 7.218 7.218 0 0 1-4.948-2.166Zm-58.03-26.81c-.28-.2-1.91-1.07-1.91-1.389q-.078-2.32-.08-4.641a2.762 2.762 0 0 1 .68 0c-.271.75.57 1.06 1 1.39s.49.829.66 1.33c.26.721.65 1.29.26 1.91s.18.64.79 1c-.4.463-.526.708-.749.708a1.489 1.489 0 0 1-.649-.308Zm14.23-.1c.25-1.37 1.17-.77 2.31-.55-.061-.71-.15-2.221 1.25-1.85s1.35.44 1.73 1.84c1.03-.49 1.63-1.209 2.359-.09a9.186 9.186 0 0 1-3.869.89h-.22c-1.18 0-2.37-.147-3.558-.24Zm13.7-.079c-.74-.092-1.5-.18-2.24-.33-.5-.111-.69-.64-1.23-1a1.607 1.607 0 0 0-1.046-.072c-.4.055-.767.11-.844-.118-.271-.74-.621-.63-1.361-.74-.26-.041-1.11-.02-1.11-.341-.008-.728-.247-.717-.724-.706-.125 0-.267.007-.425 0-.4-.03-1.1-.76-1.4-.51a11.126 11.126 0 0 1-1.3 1.2 4.53 4.53 0 0 1-1.419.159 3.308 3.308 0 0 1-1.481 1 1.991 1.991 0 0 1-1.334-.427c-.682-.427-1.245-.854-1.665.308-.56-.459-2.93-1.23-1.67.181.45.54 1.771.678 2.45.908l-.18.47c-1.33-.371-3.26-.371-4.33-1.231a6.485 6.485 0 0 0-2.29-.85c-.469-.14-1.01-1.4-1.289-1.821.92-.4 1.05-.26.659-1.159l-.89-2.1 1.182.151a.61.61 0 0 0-.3.229c-.089.29 1.991.99 2.409.29s1.321-1.49.13-1.849c-.469.94-.379 1.56-1.469 1.28-.13-.07-1.58-1.07-1.58-1.07a3.007 3.007 0 0 0-.069-2.329 3.5 3.5 0 0 1-.171-2.18c.1-1.23-3.289-2.17-4-2.489-1.43-.68-2.31-1.831-3.63-2.681.7-.64 1.941-.17 2.7 0s.88.391 1.3-.29c.269-.36.949-.721 1-1.11.16-1.26-1.22-1.56-2.221-1.92-.779-.291-.829-.28-1.189.31s.26.99.64 1.47c-.68.16-2.431.969-2.851.51-.878-.95-1.22-1.86-2.439-2.329l1.5-2.23c-.33.49 2.09.3 2.24.3a5.325 5.325 0 0 0 2.74-1.121c.44-.38 2.16-.7 2.271-1 .52-1.43.62-1.55-.09-2.889a10.639 10.639 0 0 1-.8-2.811c-.17-.779.6-1.61.3-2.409-.371-.97-.77-1.87-1.18-2.87a26.177 26.177 0 0 0-2.37-5 21.9 21.9 0 0 1-1.57-2c-.16-.28-.491-.95-.82-.77-.941.51.069.47-.1 1.251-.409 1.82-4.11.709-2.811-1.281s3.141-1.06 4.83-.17a.7.7 0 0 0 .076-.987.7.7 0 0 0-.3-.2c2.53-2.76.61-8-2-10.2a22.818 22.818 0 0 0-9.32-4.93c-1.049-.269-4.51-.32-4.82-1.48-.4-1.52 3.951.37 4.469.37 2.16-.02 3.86-.14 5.86.67.89.31 1.531-.18 2.3-.69 1.311-.86-.119-1.34-1-2-.31.539-.591 1.58-1.411 1.319-.179-.061 0-1.08 0-1.25.01-.33-.53-.57-.77-.75-1.52-1.16-3.06-1.771-4.138-3.4-1.291-1.949-3.5-1.85-5.612-2.1a9.35 9.35 0 0 1-4.889-2.259c1.69.07 3.19-.26 4.821-.26 1.84-.011 3.969-.51 5.67.25a10.746 10.746 0 0 0 5.108 1.249 6.87 6.87 0 0 0 2.67-.269c.86-.45 1.71-.9 2.6-1.291a3.78 3.78 0 0 1 2.24-.66c.859.16.219 1.131.5 1.23s.64.8.861 1.1.5.861.928.76c.18-.05 1.26-.25 1.18-.521-.25-.85-.271-1.9 1-2 .294-.02.455.543.682 1.1.233.581.538 1.159 1.137 1.1.53-.051 2.169-.18 2.35-.94.28-1.2-.25-1.59 1-2.42.393-.246.34.365.311.976-.026.553-.033 1.1.329 1.025.41-.091.219-1.23.821-1.42s1.22-.279 1.82-.49c1.29-.44 2.56-1.27 2.36-2.719s.74-2.631.38-4.161a16.426 16.426 0 0 1-.28-2.38c-.112-1.38-3.121-.86-.71-2.2 1.17-.61.89 2 2.239 2 1.581-.05 2.771-1.051 4.091-1.791a2.8 2.8 0 0 1 1.768 0c.833.156 1.672.313 2.112-.276a5.087 5.087 0 0 0 1-1.56c.05-.261.31-1.79.491-1.821.08-.012.078.223.123.46.055.291.181.58.616.41s1.131-.569 1-1.089c-.169-.71-1.029-3.071-1.5-1-.471-1.131.039-1.92-.28-3.071a14.889 14.889 0 0 0-1.44-2.92c-1.01-1.89-4.379-2-6.22-2.35-2.1-.4-3.71-.56-5.6-1.67-.92-.549-3.409-1.15-3.83-1.86s-1.12-2.89-.84-3.709a17.362 17.362 0 0 1 2.479 1.4c.149.3-.189 1.13-.181 1.4s.961.551 1.171.65c1.889.919 4 1.459 6 2.209a24.73 24.73 0 0 0 5.469 1c1.351.18 3.95.97 5.271.261s1.919-1.02 3.378-.54c.91.29.69 1.319 1.69 1.71.392.11 2.5 1.209 2.851 1a17.316 17.316 0 0 1 3-1.12 12.889 12.889 0 0 0 2.159-1.16c.88-.52 1.63-1.759 2.52-2.07 1.6-.56 1.642-.92 2.321.92.2.53 1.06 2.55.06 2.91-.139.051-.369-1.519-.521-1.519a9.43 9.43 0 0 0-2.249 2 8.272 8.272 0 0 1 0 3.41c-.651 1.8-1.621 1.381-2.74.091-.5-.58-.73-1.251-1.42-.82-.251.2-1.781.54-1.781 0a22.71 22.71 0 0 0 .33 4.62c.2.72 1.24 1.119 1.71 1.719.641.82.571 1.8 1.461 2.471 1.779 1.36 1.22 3.09-.1 4.6-.791.921-1.431-.01-2.052-.4-1.129-.709-1.409-.29-2.129.61-1.208 1.5-1.54 2.03-3.369 2.67-1.65.57.419 1.58 1.1 1.691a10.873 10.873 0 0 0 3-.34c.721-.141.771-.631 1.291-1.141a5.322 5.322 0 0 1 2.41-.759c.64-.1 2.319-.821 2.43.18.051.4.851 3.121.68 3.309-.38.451-1.05-1-1.32-1-.5-.079-.24 1.669.1 2s2.05.23 2.179.62-.909 1.46-1.26 1.55a25.038 25.038 0 0 1-2.5.48 54.505 54.505 0 0 1-5.892.421c.2.329.4.67.622 1 .33.49-.43.31-.43.74.08.79 2.13.219 2.54.069.96-.36 1.32-.659 2.25-.3 1.16.449 2.16-.011 3.36-.091a1.384 1.384 0 0 1 .491.1.919.919 0 0 0 .7.043.573.573 0 0 0-.22-.7c-.379-.549-.15-.43.261-.74.739-.579.728.79 1.05 1.23.209.28 1.05 1.86.759 2.151s.18.879.441 1c.61.29.67 1.139.67 1.73a2.573 2.573 0 0 1-.61 1.36c-.43.67-.552-.261-.73-.65-.44.86-3.361 3.02-.689 2.48.51-.1 2.269-.03 2.429-.629a30.986 30.986 0 0 0 .909-3.64c.1.3 1.351 2.3 1.431.3.04-.91-.741-1.259-.29-2.11a18.691 18.691 0 0 1 1.589-2.88l1.51.161a6.146 6.146 0 0 0 3.271-.63 6.7 6.7 0 0 1 .609-.449c.16 0 3.379 1.829 3.521 1.829a3.949 3.949 0 0 1-.4 1.14c-.61 1.14-1.2 2.28-1.791 3.429a28.221 28.221 0 0 0-1.608 3.271c-.13.36-.15 1.96.2 2.13.929.45.831-1.21.929-1.8.591.291 1.311.149 1.122-.65-.261-1.119-.971-2.33.608-1.92.3.091 2.3.441 2.3-.161.05-.858-.99-1.219-1.09-2a7.938 7.938 0 0 1 1.14-1.53c1.541.4-.4 1.449 1 1.649a4.266 4.266 0 0 0 1.871.05c.789-.29.459.68.459 1.089 0 .061 1.09.7.7.853a2.392 2.392 0 0 1-2.16-.488 2.616 2.616 0 0 0-1.66-.584 2.914 2.914 0 0 1 .69 1.74c-.049.331-.419.53-.41 1s1.24.14 1.45.071c.75-.24.98-.94 1.91-.94 1.11-.01-.35 1.649.16 1.77 1.85.44 2.27 2.139 3.47-.3.411-.832-1.39-.95-1.69-1.661-.05-.1-1.03-2.22.089-1.921.6.161.342.961 1.25.231.411-.36-.649-1-.709-1a1.991 1.991 0 0 1 1.549-.22 1.376 1.376 0 0 1 .281-1.281c.409-.44-.9-1.15-.36-1.649.249-.271 1.19-.881 1.19-1.27-.071-.57-1.8-1.12-1.641-2a2.815 2.815 0 0 0 .053-1.489c-.249-.45-.89-1.2-.89-1.72v-.62c.51-.66 3.89 3.36 4.19 3.6a4.592 4.592 0 0 0 4 .541 4.33 4.33 0 0 1 .72 0c-.38.92-.79 2.021 0 2.61l2.48 1.88c-1.4.54-2.93 1.43-2.58 2.67v.06a2.276 2.276 0 0 0-1.73.141c-.81.471-1.629.646-1.822 1.555.213-.837 1.034-1.042 1.811-1.516a2.276 2.276 0 0 1 1.73-.139 8.919 8.919 0 0 0 1.19 2.09c.671.95 2.021 2.93 1.67 3.52a6.318 6.318 0 0 0-1.14 2.76c0 .36.318 2.593.27 2.669s-.111.11-.411.19a2 2 0 0 0-1.619 1.519 4.64 4.64 0 0 0-.129 3 2.908 2.908 0 0 0 1.649 1.91 2.009 2.009 0 0 0 .66.11 2.386 2.386 0 0 0 1.22-.349 2.341 2.341 0 0 0 .74-.78c.229-.321.359-.52 1.13-.28a16.771 16.771 0 0 0-3.341 3.73 16.1 16.1 0 0 0-1.22 2.38 6 6 0 0 0-2.56.3 47.407 47.407 0 0 0-7.55 3.191q-.744.443-1.53.809c-2.431 1.21-4.33 2.23-4.75 3.49-.631 1.889.729 2.94 1.82 3.79l.26.2c1.67 1.289 1.85 1.829 1.85 2 0 .02 0 .051-.1.129a19.129 19.129 0 0 1-2.409 1.34 40.708 40.708 0 0 0-5.819 3.4 8.725 8.725 0 0 1-6.241 1.27 4.017 4.017 0 0 1-1.369-.571 4.347 4.347 0 0 0-3.21-.74c-.84.21-1.861 1.15-3.46 2.661a22.616 22.616 0 0 1-3.49 2.919c-2.4 1.381-5.541 5.209-6.281 6.531a16.391 16.391 0 0 0-1 2.76 12.866 12.866 0 0 1-1.26 3.1c-.759.979-1.35 3.539-1.64 5.19Zm45.87-57.47c-.246.477-.547.82-.645 1.121.108-.292.4-.625.635-1.082a.315.315 0 0 0 .026-.079c0 .013-.009.027-.014.04Z" />
  <path id="Bornholm" d="M330.288 131.013c-.61-.05-1.66-1-2.17-1.32a26.534 26.534 0 0 1-2.51-1.53c-1.49-1.15-2.68-2.58-4.21-3.7a3.762 3.762 0 0 1-1.51-1.91 5.521 5.521 0 0 0-1.82-1.83l-.67 1.4a35.556 35.556 0 0 1-5.07-3.08 10.4 10.4 0 0 0-2.17-1.85c-.88-.47-2.28-.77-2.5-1.8s-.16-1.81-1.14-2.41c-1.35-.82-2.06-.86-2-2.45 0-.19-1.08-.35-1.28-.25a8.613 8.613 0 0 0-.93 1.38c-.36.53.44 1.09.09 1.87-.86 1.9-1.74 3.8-2.56 5.71l-1.38 3.2c-.29.67.34 1.79.19 2.56-.38 1.94.19 3.84 0 5.79-.06.81.15 2.38-.26 3.07a5.005 5.005 0 0 0-1.09 2.85l1.11-.41-.52.95c1.47 1.73 2.41 3 4.43 4s3.82 1.87 5.8 2.66c2.32.92 4.75 1.7 7 2.77 1.82.86 3.42 1.94 5.32 2.62.93.34 5.88 2.73 6.46 2l2.58-3.29c.78-1 .2-1.67-.18-2.87-.24-.78.28-1.3.66-2l2.29-4.3c.53-1 .71-1.09.36-2.16-.54-1.66-.37-2.33.29-4 .25-.63-.59-1.68-.87-2.26s-1.26.63-1.74.59Z" />
</svg>