<svg width="30" height="29" viewBox="0 0 30 29" fill="none" xmlns="http://www.w3.org/2000/svg">
<path d="M7.55175 25.0855L4.11924 0.583008H0.912109L4.86247 28.8369H10.2322L14.182 0.588892H10.9813L7.55175 25.0855Z" fill="#0F1A27"/>
<path d="M24.3137 12.1844L23.6584 16.8559C23.6281 17.5196 23.3571 18.1494 22.8961 18.6278C22.4813 19.0278 21.938 19.2675 21.363 19.3042C20.7879 19.3409 20.2186 19.1722 19.7563 18.8281C19.3816 18.535 19.0973 18.142 18.9363 17.6942C18.7752 17.2465 18.744 16.7624 18.8463 16.2978L19.5121 11.5427L20.9956 0.582538H17.7767L15.7198 15.7061L15.6948 15.8655C15.4307 17.3124 15.7451 18.8052 16.5703 20.0226C17.3956 21.2401 18.6658 22.085 20.1076 22.3755C21.5494 22.666 23.0477 22.379 24.28 21.5762C25.5124 20.7733 26.3804 19.5188 26.6973 18.0826L26.7588 17.6436L29.0894 0.578125H25.8869L24.3137 12.1844Z" fill="#0F1A27"/>
<path d="M13.8213 28.8353V28.8833H25.2204L25.2278 28.835L25.6668 25.7012H14.2559L13.8213 28.8353Z" fill="#0F1A27"/>
</svg>
